G04 ================== begin FILE IDENTIFICATION RECORD ==================*
G04 Layout Name:  E:/WorkSpace/PrjPublic/ADS1115_DAC8552/PCB/ADS1115_DAC8552.brd*
G04 Film Name:    BOTTOM*
G04 File Format:  Gerber RS274X*
G04 File Origin:  Cadence Allegro 16.6-2015-S108*
G04 Origin Date:  Mon Apr 08 15:38:06 2024*
G04 *
G04 Layer:  VIA CLASS/BOTTOM*
G04 Layer:  PIN/BOTTOM*
G04 Layer:  ETCH/BOTTOM*
G04 Layer:  BOARD GEOMETRY/OUTLINE*
G04 *
G04 Offset:    (0.000 0.000)*
G04 Mirror:    No*
G04 Mode:      Positive*
G04 Rotation:  0*
G04 FullContactRelief:  No*
G04 UndefLineWidth:     5.000*
G04 ================== end FILE IDENTIFICATION RECORD ====================*
%FSLAX55Y55*MOIN*%
%IR0*IPPOS*OFA0.00000B0.00000*MIA0B0*SFA1.00000B1.00000*%
%ADD11C,.024*%
%ADD10C,.07165*%
%ADD13C,.08661*%
%ADD12R,.07165X.07165*%
%ADD14C,.005*%
%ADD15C,.02*%
%ADD19R,.087654X.087654*%
%ADD17C,.102614*%
%ADD21R,.16X.2*%
%ADD20C,.081654*%
%ADD18C,.096614*%
%ADD16C,.087654*%
G75*
%LPD*%
G75*
G36*
G01X2000Y2000D02*
Y194850D01*
X155480D01*
Y2000D01*
X2000D01*
G37*
%LPC*%
G75*
G36*
G01X52787Y12017D02*
G02Y15905I-4748J1944D01*
G03X53713I463J189D01*
G02Y12017I4748J-1944D01*
G03X52787I-463J-189D01*
G37*
G36*
G01Y32095D02*
G02Y35983I-4748J1944D01*
G03X53713I463J189D01*
G02Y32095I4748J-1944D01*
G03X52787I-463J-189D01*
G37*
G36*
G01X24250Y62189D02*
X19083Y57022D01*
Y54750D01*
X21811D01*
X23250Y53311D01*
Y48811D01*
X27311Y44750D01*
X33811D01*
X38750Y39811D01*
Y28776D01*
X38951Y28736D01*
G02X37049I-951J-4736D01*
G01X37250Y28776D01*
Y39189D01*
X33189Y43250D01*
X26689D01*
X21750Y48189D01*
Y52689D01*
X21189Y53250D01*
X19083D01*
Y49917D01*
X10917D01*
Y58083D01*
X18022D01*
X22750Y62811D01*
Y74474D01*
G02X24250I750J1526D01*
G01Y62189D01*
G37*
G36*
G01X104250Y47311D02*
X108689Y51750D01*
X116689D01*
X119250Y54311D01*
Y82311D01*
X121917Y84978D01*
Y89583D01*
X125250D01*
Y121689D01*
X118689Y128250D01*
X97811D01*
X95082Y125521D01*
G03X95109Y124788I354J-354D01*
G02X93250Y125026I-1109J-1289D01*
G01Y125811D01*
X97189Y129750D01*
X119311D01*
X126750Y122311D01*
Y89583D01*
X130083D01*
Y81417D01*
X121917D01*
Y81649D01*
G03X121064Y82003I-500J0D01*
G01X120750Y81689D01*
Y53689D01*
X117311Y50250D01*
X109311D01*
X105750Y46689D01*
Y28776D01*
X105951Y28736D01*
G02X104049I-951J-4736D01*
G01X104250Y28776D01*
Y47311D01*
G37*
G36*
G01X145750Y61689D02*
X138250Y54189D01*
Y28776D01*
X138451Y28736D01*
G02X136549I-951J-4736D01*
G01X136750Y28776D01*
Y54811D01*
X144250Y62311D01*
Y77189D01*
X140022Y81417D01*
X132917D01*
Y89583D01*
X141083D01*
Y82478D01*
X145750Y77811D01*
Y61689D01*
G37*
G36*
G01X105287Y79083D02*
G03X104899Y78267I0J-500D01*
G02X98101I-3399J-2767D01*
G03X97713Y79083I-388J316D01*
G01X80357D01*
X74250Y85189D01*
Y91974D01*
G02X75750I750J1526D01*
G01Y85811D01*
X80978Y80583D01*
X107022D01*
X108917Y82478D01*
Y89583D01*
X117083D01*
Y81417D01*
X109978D01*
X107643Y79083D01*
X105287D01*
G37*
G36*
G01X105583Y89583D02*
Y81417D01*
X97417D01*
Y84750D01*
X83689D01*
X79250Y89189D01*
Y91974D01*
G02X80750I750J1526D01*
G01Y89811D01*
X84311Y86250D01*
X97417D01*
Y89583D01*
X105583D01*
G37*
G36*
G01X45974Y102250D02*
X46000Y102302D01*
Y152198D01*
X45974Y152250D01*
G02Y153750I1526J750D01*
G01X46000Y153802D01*
Y161500D01*
X56198D01*
X56250Y161526D01*
G02X57750I750J-1526D01*
G01X57802Y161500D01*
X124500D01*
Y144802D01*
X124526Y144750D01*
G02X121474I-1526J-750D01*
G01X121500Y144802D01*
Y158500D01*
X57802D01*
X57750Y158474D01*
G02X56250I-750J1526D01*
G01X56198Y158500D01*
X49000D01*
Y153802D01*
X49026Y153750D01*
G02Y152250I-1526J-750D01*
G01X49000Y152198D01*
Y103000D01*
X90500D01*
Y93302D01*
X90526Y93250D01*
G02X87474I-1526J-750D01*
G01X87500Y93302D01*
Y100000D01*
X48302D01*
X48250Y99974D01*
G02X45974Y102250I-750J1526D01*
G37*
G36*
G01X32811Y106250D02*
X36447Y102614D01*
X36584Y102649D01*
G02X35351Y101415I415J-1649D01*
G01X35386Y101553D01*
X32189Y104750D01*
X19018D01*
X18972Y104558D01*
G02Y106442I-3972J942D01*
G01X19018Y106250D01*
X32811D01*
G37*
G36*
G01X75750Y117974D02*
Y109026D01*
G02X74250I-750J-1526D01*
G01Y117974D01*
G02X75750I750J1526D01*
G37*
G36*
G01X79064Y124523D02*
X80750Y122836D01*
Y115026D01*
G02X79250I-750J-1526D01*
G01Y122215D01*
X78003Y123462D01*
X77865Y123427D01*
G02X79098Y124660I-416J1649D01*
G01X79064Y124523D01*
G37*
G36*
G01X71500Y130000D02*
Y123302D01*
X71526Y123250D01*
G02X68474I-1526J-750D01*
G01X68500Y123302D01*
Y133000D01*
X82198D01*
X82250Y133026D01*
G02Y129974I750J-1526D01*
G01X82198Y130000D01*
X71500D01*
G37*
G36*
G01X69084Y135851D02*
X68947Y135886D01*
X64811Y131750D01*
X53026D01*
G02Y133250I-1526J750D01*
G01X64189D01*
X67886Y136947D01*
X67851Y137084D01*
G02X69084Y135851I1649J415D01*
G37*
G36*
G01X24311Y169250D02*
X15750Y160689D01*
Y139583D01*
X19083D01*
Y131417D01*
X10917D01*
Y139583D01*
X14250D01*
Y161311D01*
X23689Y170750D01*
X88071D01*
X90768Y173447D01*
X90733Y173584D01*
G02X91966Y172351I1649J415D01*
G01X91829Y172386D01*
X88693Y169250D01*
X24311D01*
G37*
G36*
G01X131000Y185000D02*
Y144802D01*
X131026Y144750D01*
G02X127974I-1526J-750D01*
G01X128000Y144802D01*
Y182000D01*
X113802D01*
X113750Y181974D01*
G02Y185026I-750J1526D01*
G01X113802Y185000D01*
X131000D01*
G37*
G36*
G01X35802Y159500D02*
X41500D01*
Y165698D01*
X41474Y165750D01*
G02X44526I1526J750D01*
G01X44500Y165698D01*
Y156500D01*
X35802D01*
X35750Y156474D01*
G02Y159526I-750J1526D01*
G01X35802Y159500D01*
G37*
G36*
G01X79698Y173000D02*
X43802D01*
X43750Y172974D01*
G02Y176026I-750J1526D01*
G01X43802Y176000D01*
X79698D01*
X79750Y176026D01*
G02Y172974I750J-1526D01*
G01X79698Y173000D01*
G37*
G54D19*
X15500Y173000D03*
G54D17*
X147539Y34039D03*
Y13961D03*
X127461Y34039D03*
X115039D03*
X127461Y13961D03*
X115039D03*
X94961Y34039D03*
Y13961D03*
X78539Y34039D03*
Y13961D03*
X27961Y34039D03*
Y13961D03*
G54D21*
X104500Y111000D03*
G54D20*
X15500Y183000D03*
X15000Y125500D03*
Y115500D03*
Y95500D03*
Y85500D03*
Y75500D03*
Y44000D03*
Y34000D03*
Y24000D03*
G54D18*
X68500D03*
G54D16*
X137000Y75500D03*
X113000D03*
X126000D03*
X15000Y65500D03*
Y14000D03*
%LPD*%
G75*
G54D10*
X15000Y14000D03*
Y24000D03*
Y34000D03*
Y44000D03*
Y65500D03*
Y75500D03*
Y85500D03*
Y95500D03*
Y105500D03*
Y115500D03*
Y125500D03*
X15500Y183000D03*
X101500Y75500D03*
X126000D03*
X113000D03*
X137000D03*
G54D11*
X6000Y18000D03*
Y46000D03*
Y74000D03*
Y98000D03*
Y120000D03*
Y144000D03*
Y166000D03*
Y190000D03*
X36000Y48000D03*
X23500Y76000D03*
X35000Y158000D03*
X44000Y58000D03*
X54000Y48000D03*
X47500Y101500D03*
X37000Y101000D03*
X44000Y138000D03*
X51500Y132500D03*
X52000Y166000D03*
X43000Y166500D03*
Y174500D03*
X57000Y160000D03*
X47500Y153000D03*
X64000Y58000D03*
X70000Y96000D03*
X75000Y93500D03*
X80000D03*
X70000Y122500D03*
X75000Y119500D03*
Y107500D03*
X77450Y125076D03*
X80000Y113500D03*
X62000Y138000D03*
X69500Y137500D03*
X72000Y166000D03*
X80500Y174500D03*
X103000Y51500D03*
X106000Y60000D03*
X89000Y92500D03*
X94000Y123500D03*
X83000Y131500D03*
X92382Y174000D03*
X108000Y44000D03*
X128000D03*
X107000Y134500D03*
X123000Y144000D03*
X120500Y171000D03*
X126000Y190000D03*
X113000Y183500D03*
X148000Y44000D03*
Y82000D03*
Y60000D03*
Y106000D03*
Y132000D03*
X129500Y144000D03*
X148000Y162000D03*
Y190000D03*
G54D12*
X15000Y54000D03*
Y135500D03*
X15500Y173000D03*
X101500Y85500D03*
X126000D03*
X113000D03*
X137000D03*
G54D13*
X27961Y13961D03*
X38000Y24000D03*
X27961Y34039D03*
X48039Y13961D03*
X58461D03*
X48039Y34039D03*
X58461D03*
X78539Y13961D03*
X68500Y24000D03*
X78539Y34039D03*
X94961Y13961D03*
X105000Y24000D03*
X94961Y34039D03*
X115039Y13961D03*
X127461D03*
X115039Y34039D03*
X127461D03*
X147539Y13961D03*
X137500Y24000D03*
X147539Y34039D03*
G54D14*
G01X38000Y24000D02*
Y39500D01*
X33500Y44000D01*
X27000D01*
X22500Y48500D01*
Y53000D01*
X21500Y54000D01*
X15000D01*
G01X23500Y76000D02*
Y62500D01*
X15000Y54000D01*
G01X37000Y101000D02*
X32500Y105500D01*
X15000D01*
G01Y135500D02*
Y161000D01*
X24000Y170000D01*
X88382D01*
X92382Y174000D01*
G01X51500Y132500D02*
X64500D01*
X69500Y137500D01*
G01X75000Y93500D02*
Y85500D01*
X80667Y79833D01*
X107333D01*
X113000Y85500D01*
G01X101500D02*
X84000D01*
X80000Y89500D01*
Y93500D01*
G01X75000Y107500D02*
Y119500D01*
G01X77450Y125076D02*
X80000Y122526D01*
Y113500D01*
G01X105000Y24000D02*
Y47000D01*
X109000Y51000D01*
X117000D01*
X120000Y54000D01*
Y82000D01*
X123500Y85500D01*
X126000D01*
G01X94000Y123500D02*
Y125500D01*
X97500Y129000D01*
X119000D01*
X126000Y122000D01*
Y85500D01*
G01X137000D02*
X145000Y77500D01*
Y62000D01*
X137500Y54500D01*
Y24000D01*
G01X0Y0D02*
X157480D01*
Y196850D01*
X0D01*
Y0D01*
G54D15*
G01X10367Y14000D02*
X15000D01*
G01X10367Y65500D02*
X15000D01*
G01X10867Y173000D02*
X15500D01*
G01X15000Y9367D02*
Y14000D01*
G01X27961Y8580D02*
Y13961D01*
G01Y28658D02*
Y34039D01*
G01D02*
Y39420D01*
G01X22580Y34039D02*
X27961D01*
G01D02*
X33342D01*
G01X15000Y14000D02*
Y18633D01*
G01Y14000D02*
X19633D01*
G01X27961Y13961D02*
Y19342D01*
G01X22580Y13961D02*
X27961D01*
G01D02*
X33342D01*
G01X15000Y60867D02*
Y65500D01*
G01D02*
Y70133D01*
G01Y65500D02*
X19633D01*
G01X15500Y168367D02*
Y173000D01*
G01D02*
Y177633D01*
G01Y173000D02*
X20133D01*
G01X43000Y166500D02*
Y158000D01*
X35000D01*
G01X58461Y8580D02*
Y13961D01*
G01X48039Y8580D02*
Y13961D01*
G01X58461Y28658D02*
Y34039D01*
G01D02*
Y39420D01*
G01Y34039D02*
X63842D01*
G01X48039Y28658D02*
Y34039D01*
G01D02*
Y39420D01*
G01X42658Y34039D02*
X48039D01*
G01X58461Y13961D02*
Y19342D01*
G01Y13961D02*
X63842D01*
G01X48039D02*
Y19342D01*
G01X42658Y13961D02*
X48039D01*
G01X89000Y92500D02*
Y101500D01*
X47500D01*
G01Y153000D02*
Y101500D01*
G01X43000Y174500D02*
X80500D01*
G01X57000Y160000D02*
X47500D01*
Y153000D01*
G01X57000Y160000D02*
X123000D01*
Y144000D01*
G01X78539Y8580D02*
Y13961D01*
G01Y28658D02*
Y34039D01*
G01D02*
Y39420D01*
G01X73158Y34039D02*
X78539D01*
G01D02*
X83920D01*
G01X78539Y13961D02*
Y19342D01*
G01X73158Y13961D02*
X78539D01*
G01D02*
X83920D01*
G01X70000Y122500D02*
Y131500D01*
X83000D01*
G01X94961Y8580D02*
Y13961D01*
G01Y28658D02*
Y34039D01*
G01D02*
Y39420D01*
G01X89580Y34039D02*
X94961D01*
G01D02*
X100342D01*
G01X94961Y13961D02*
Y19342D01*
G01X89580Y13961D02*
X94961D01*
G01D02*
X100342D01*
G01X101500Y70867D02*
Y75500D01*
G01X96867D02*
X101500D01*
G01D02*
X106133D01*
G01X127461Y8580D02*
Y13961D01*
G01X115039Y8580D02*
Y13961D01*
G01X127461Y28658D02*
Y34039D01*
G01D02*
Y39420D01*
G01X122080Y34039D02*
X127461D01*
G01D02*
X132842D01*
G01X115039Y28658D02*
Y34039D01*
G01D02*
Y39420D01*
G01X109658Y34039D02*
X115039D01*
G01D02*
X120420D01*
G01X127461Y13961D02*
Y19342D01*
G01X122080Y13961D02*
X127461D01*
G01D02*
X132842D01*
G01X115039D02*
Y19342D01*
G01X109658Y13961D02*
X115039D01*
G01D02*
X120420D01*
G01X113000Y70867D02*
Y75500D01*
G01D02*
Y80133D01*
G01X108367Y75500D02*
X113000D01*
G01D02*
X117633D01*
G01X126000Y70867D02*
Y75500D01*
G01D02*
Y80133D01*
G01Y75500D02*
X130633D01*
G01X113000Y183500D02*
X129500D01*
Y144000D01*
G01X147539Y8580D02*
Y13961D01*
G01Y28658D02*
Y34039D01*
G01D02*
Y39420D01*
G01X142158Y34039D02*
X147539D01*
G01D02*
X152920D01*
G01X147539Y13961D02*
Y19342D01*
G01X142158Y13961D02*
X147539D01*
G01D02*
X152920D01*
G01X137000Y70867D02*
Y75500D01*
G01D02*
Y80133D01*
G01X132367Y75500D02*
X137000D01*
G01D02*
X141633D01*
M02*
