G04 ================== begin FILE IDENTIFICATION RECORD ==================*
G04 Layout Name:  E:/WorkSpace/PrjPublic/ADS1115_DAC8552/PCB/ADS1115_DAC8552.brd*
G04 Film Name:    SILKSCREEN_TOP*
G04 File Format:  Gerber RS274X*
G04 File Origin:  Cadence Allegro 16.6-2015-S108*
G04 Origin Date:  Mon Apr 08 15:38:06 2024*
G04 *
G04 Layer:  BOARD GEOMETRY/OUTLINE*
G04 Layer:  BOARD GEOMETRY/SILKSCREEN_TOP*
G04 Layer:  PACKAGE GEOMETRY/SILKSCREEN_TOP*
G04 Layer:  REF DES/SILKSCREEN_TOP*
G04 *
G04 Offset:    (0.000 0.000)*
G04 Mirror:    No*
G04 Mode:      Positive*
G04 Rotation:  0*
G04 FullContactRelief:  No*
G04 UndefLineWidth:     5.000*
G04 ================== end FILE IDENTIFICATION RECORD ====================*
%FSLAX55Y55*MOIN*%
%IR0*IPPOS*OFA0.00000B0.00000*MIA0B0*SFA1.00000B1.00000*%
%ADD10C,.005*%
%ADD11C,.006*%
%ADD12C,.005906*%
%ADD13C,.005909*%
G75*
%LPD*%
G75*
G36*
G01X22709Y151500D02*
G03I-709J0D01*
G37*
G36*
G01X45500Y75500D02*
G03I-500J0D01*
G37*
G36*
G01X70209Y120000D02*
G03I-709J0D01*
G37*
G36*
G01X76248Y162000D02*
G03I-1118J0D01*
G37*
G36*
G01X92248Y121500D02*
G03I-1118J0D01*
G37*
G36*
G01X91709Y188500D02*
G03I-709J0D01*
G37*
G54D10*
G01X8500Y54833D02*
X8750Y55000D01*
X8917Y55200D01*
X9000Y55433D01*
X8917Y55700D01*
X8750Y55900D01*
X8500Y56100D01*
X8167Y56167D01*
X6500D01*
G01X9000Y58400D02*
X6500D01*
X8292Y57167D01*
Y58833D01*
G01X8000Y134333D02*
X8250Y134500D01*
X8417Y134700D01*
X8500Y134933D01*
X8417Y135200D01*
X8250Y135400D01*
X8000Y135600D01*
X7667Y135667D01*
X6000D01*
G01X8500Y137433D02*
X7958Y137500D01*
X7500Y137600D01*
X7083Y137733D01*
X6625Y137900D01*
X6000Y138167D01*
Y136833D01*
G01X8500Y168333D02*
X8750Y168500D01*
X8917Y168700D01*
X9000Y168933D01*
X8917Y169200D01*
X8750Y169400D01*
X8500Y169600D01*
X8167Y169667D01*
X6500D01*
G01X9000Y171500D02*
X6500D01*
X7000Y171100D01*
G01X9000D02*
Y171900D01*
G01X28733Y52792D02*
X28533Y52917D01*
X28300Y53000D01*
X28033D01*
X27733Y52875D01*
X27500Y52667D01*
X27333Y52417D01*
X27200Y52000D01*
X27167Y51625D01*
X27233Y51250D01*
X27333Y51000D01*
X27533Y50750D01*
X27767Y50583D01*
X28000Y50500D01*
X28233D01*
X28467Y50583D01*
X28667Y50708D01*
X28833Y50875D01*
G01X30500Y50500D02*
Y53000D01*
X30100Y52500D01*
G01Y50500D02*
X30900D01*
G01X33000D02*
X33233Y50542D01*
X33500Y50667D01*
X33667Y50875D01*
X33733Y51167D01*
X33667Y51458D01*
X33467Y51708D01*
X33167Y51833D01*
X32833D01*
X32633Y51917D01*
X32467Y52125D01*
X32400Y52417D01*
X32500Y52708D01*
X32733Y52917D01*
X33000Y53000D01*
X33267Y52917D01*
X33500Y52708D01*
X33600Y52417D01*
X33533Y52125D01*
X33367Y51917D01*
X33167Y51833D01*
X32833D01*
X32533Y51708D01*
X32333Y51458D01*
X32267Y51167D01*
X32333Y50875D01*
X32500Y50667D01*
X32767Y50542D01*
X33000Y50500D01*
G01X28733Y49292D02*
X28533Y49417D01*
X28300Y49500D01*
X28033D01*
X27733Y49375D01*
X27500Y49167D01*
X27333Y48917D01*
X27200Y48500D01*
X27167Y48125D01*
X27233Y47750D01*
X27333Y47500D01*
X27533Y47250D01*
X27767Y47083D01*
X28000Y47000D01*
X28233D01*
X28467Y47083D01*
X28667Y47208D01*
X28833Y47375D01*
G01X29867Y49083D02*
X30067Y49333D01*
X30300Y49458D01*
X30567Y49500D01*
X30900Y49417D01*
X31133Y49208D01*
X31200Y48958D01*
X31167Y48708D01*
X31033Y48500D01*
X30367Y48083D01*
X30067Y47792D01*
X29867Y47375D01*
X29800Y47000D01*
X31200D01*
G01X32267Y47500D02*
X32467Y47208D01*
X32733Y47042D01*
X33033Y47000D01*
X33300Y47042D01*
X33567Y47250D01*
X33733Y47500D01*
X33767Y47750D01*
X33700Y48042D01*
X33467Y48250D01*
X33233Y48333D01*
X32933D01*
G01X33233D02*
X33433Y48458D01*
X33600Y48667D01*
X33667Y48917D01*
X33600Y49167D01*
X33433Y49375D01*
X33133Y49500D01*
X32833Y49458D01*
X32533Y49292D01*
G01X27333Y43000D02*
Y45500D01*
X28167D01*
X28433Y45375D01*
X28600Y45208D01*
X28667Y44875D01*
X28600Y44542D01*
X28400Y44333D01*
X28167Y44208D01*
X27333D01*
G01X28167D02*
X28667Y43000D01*
G01X29867Y45083D02*
X30067Y45333D01*
X30300Y45458D01*
X30567Y45500D01*
X30900Y45417D01*
X31133Y45208D01*
X31200Y44958D01*
X31167Y44708D01*
X31033Y44500D01*
X30367Y44083D01*
X30067Y43792D01*
X29867Y43375D01*
X29800Y43000D01*
X31200D01*
G01X32933D02*
X33000Y43542D01*
X33100Y44000D01*
X33233Y44417D01*
X33400Y44875D01*
X33667Y45500D01*
X32333D01*
G01X27333Y80000D02*
Y82500D01*
X28167D01*
X28433Y82375D01*
X28600Y82208D01*
X28667Y81875D01*
X28600Y81542D01*
X28400Y81333D01*
X28167Y81208D01*
X27333D01*
G01X28167D02*
X28667Y80000D01*
G01X29867Y82083D02*
X30067Y82333D01*
X30300Y82458D01*
X30567Y82500D01*
X30900Y82417D01*
X31133Y82208D01*
X31200Y81958D01*
X31167Y81708D01*
X31033Y81500D01*
X30367Y81083D01*
X30067Y80792D01*
X29867Y80375D01*
X29800Y80000D01*
X31200D01*
G01X32367Y81042D02*
X32600Y81333D01*
X32800Y81500D01*
X33067Y81583D01*
X33300Y81500D01*
X33467Y81333D01*
X33600Y81083D01*
X33633Y80792D01*
X33600Y80542D01*
X33467Y80292D01*
X33267Y80083D01*
X33033Y80000D01*
X32767Y80083D01*
X32533Y80333D01*
X32400Y80708D01*
X32367Y81125D01*
X32433Y81667D01*
X32533Y81958D01*
X32700Y82250D01*
X32933Y82458D01*
X33167Y82500D01*
X33400Y82417D01*
X33567Y82208D01*
G01X27333Y96000D02*
Y98500D01*
X28167D01*
X28433Y98375D01*
X28600Y98208D01*
X28667Y97875D01*
X28600Y97542D01*
X28400Y97333D01*
X28167Y97208D01*
X27333D01*
G01X28167D02*
X28667Y96000D01*
G01X30500D02*
Y98500D01*
X30100Y98000D01*
G01Y96000D02*
X30900D01*
G01X33000D02*
Y98500D01*
X32600Y98000D01*
G01Y96000D02*
X33400D01*
G01X27333Y99500D02*
Y102000D01*
X28167D01*
X28433Y101875D01*
X28600Y101708D01*
X28667Y101375D01*
X28600Y101042D01*
X28400Y100833D01*
X28167Y100708D01*
X27333D01*
G01X28167D02*
X28667Y99500D01*
G01X30500D02*
Y102000D01*
X30100Y101500D01*
G01Y99500D02*
X30900D01*
G01X32267Y99875D02*
X32467Y99667D01*
X32700Y99542D01*
X33000Y99500D01*
X33300Y99583D01*
X33533Y99750D01*
X33700Y100042D01*
X33733Y100375D01*
X33667Y100708D01*
X33500Y100917D01*
X33267Y101083D01*
X33033Y101125D01*
X32800Y101083D01*
X32500Y100917D01*
X32600Y102000D01*
X33500D01*
G01X27333Y103000D02*
Y105500D01*
X28167D01*
X28433Y105375D01*
X28600Y105208D01*
X28667Y104875D01*
X28600Y104542D01*
X28400Y104333D01*
X28167Y104208D01*
X27333D01*
G01X28167D02*
X28667Y103000D01*
G01X29867Y105083D02*
X30067Y105333D01*
X30300Y105458D01*
X30567Y105500D01*
X30900Y105417D01*
X31133Y105208D01*
X31200Y104958D01*
X31167Y104708D01*
X31033Y104500D01*
X30367Y104083D01*
X30067Y103792D01*
X29867Y103375D01*
X29800Y103000D01*
X31200D01*
G01X33000Y105500D02*
X32733Y105417D01*
X32533Y105208D01*
X32400Y104958D01*
X32300Y104625D01*
X32267Y104250D01*
X32300Y103875D01*
X32400Y103542D01*
X32533Y103292D01*
X32733Y103083D01*
X33000Y103000D01*
X33267Y103083D01*
X33467Y103292D01*
X33600Y103542D01*
X33700Y103875D01*
X33733Y104250D01*
X33700Y104625D01*
X33600Y104958D01*
X33467Y105208D01*
X33267Y105417D01*
X33000Y105500D01*
G01X28333Y125500D02*
Y128000D01*
X29167D01*
X29433Y127875D01*
X29600Y127708D01*
X29667Y127375D01*
X29600Y127042D01*
X29400Y126833D01*
X29167Y126708D01*
X28333D01*
G01X29167D02*
X29667Y125500D01*
G01X30767Y125875D02*
X30967Y125667D01*
X31200Y125542D01*
X31500Y125500D01*
X31800Y125583D01*
X32033Y125750D01*
X32200Y126042D01*
X32233Y126375D01*
X32167Y126708D01*
X32000Y126917D01*
X31767Y127083D01*
X31533Y127125D01*
X31300Y127083D01*
X31000Y126917D01*
X31100Y128000D01*
X32000D01*
G01X22333Y125500D02*
Y128000D01*
X23167D01*
X23433Y127875D01*
X23600Y127708D01*
X23667Y127375D01*
X23600Y127042D01*
X23400Y126833D01*
X23167Y126708D01*
X22333D01*
G01X23167D02*
X23667Y125500D01*
G01X25900D02*
Y128000D01*
X24667Y126208D01*
X26333D01*
G01X16267Y147000D02*
Y145208D01*
X16400Y144833D01*
X16667Y144583D01*
X17000Y144500D01*
X17333Y144583D01*
X17600Y144833D01*
X17733Y145208D01*
Y147000D01*
G01X19500Y144500D02*
Y147000D01*
X19100Y146500D01*
G01Y144500D02*
X19900D01*
G01X24233Y167792D02*
X24033Y167917D01*
X23800Y168000D01*
X23533D01*
X23233Y167875D01*
X23000Y167667D01*
X22833Y167417D01*
X22700Y167000D01*
X22667Y166625D01*
X22733Y166250D01*
X22833Y166000D01*
X23033Y165750D01*
X23267Y165583D01*
X23500Y165500D01*
X23733D01*
X23967Y165583D01*
X24167Y165708D01*
X24333Y165875D01*
G01X25267D02*
X25467Y165667D01*
X25700Y165542D01*
X26000Y165500D01*
X26300Y165583D01*
X26533Y165750D01*
X26700Y166042D01*
X26733Y166375D01*
X26667Y166708D01*
X26500Y166917D01*
X26267Y167083D01*
X26033Y167125D01*
X25800Y167083D01*
X25500Y166917D01*
X25600Y168000D01*
X26500D01*
G01X16708Y163733D02*
X16583Y163533D01*
X16500Y163300D01*
Y163033D01*
X16625Y162733D01*
X16833Y162500D01*
X17083Y162333D01*
X17500Y162200D01*
X17875Y162167D01*
X18250Y162233D01*
X18500Y162333D01*
X18750Y162533D01*
X18917Y162767D01*
X19000Y163000D01*
Y163233D01*
X18917Y163467D01*
X18792Y163667D01*
X18625Y163833D01*
G01X19000Y165500D02*
X16500D01*
X17000Y165100D01*
G01X19000D02*
Y165900D01*
G01X22833Y162000D02*
Y164500D01*
X23667D01*
X23933Y164375D01*
X24100Y164208D01*
X24167Y163875D01*
X24100Y163542D01*
X23900Y163333D01*
X23667Y163208D01*
X22833D01*
G01X23667D02*
X24167Y162000D01*
G01X26000D02*
Y164500D01*
X25600Y164000D01*
G01Y162000D02*
X26400D01*
G01X30367Y190000D02*
Y192500D01*
X31633D01*
G01X31167Y191292D02*
X30367D01*
G01X33500Y190000D02*
Y192500D01*
X33100Y192000D01*
G01Y190000D02*
X33900D01*
G01X35833Y6000D02*
Y8500D01*
X36633D01*
X36900Y8375D01*
X37100Y8083D01*
X37167Y7750D01*
X37100Y7417D01*
X36933Y7167D01*
X36633Y7042D01*
X35833D01*
G01X38367Y8083D02*
X38567Y8333D01*
X38800Y8458D01*
X39067Y8500D01*
X39400Y8417D01*
X39633Y8208D01*
X39700Y7958D01*
X39667Y7708D01*
X39533Y7500D01*
X38867Y7083D01*
X38567Y6792D01*
X38367Y6375D01*
X38300Y6000D01*
X39700D01*
G01X39208Y74733D02*
X39083Y74533D01*
X39000Y74300D01*
Y74033D01*
X39125Y73733D01*
X39333Y73500D01*
X39583Y73333D01*
X40000Y73200D01*
X40375Y73167D01*
X40750Y73233D01*
X41000Y73333D01*
X41250Y73533D01*
X41417Y73767D01*
X41500Y74000D01*
Y74233D01*
X41417Y74467D01*
X41292Y74667D01*
X41125Y74833D01*
G01X39417Y75867D02*
X39167Y76067D01*
X39042Y76300D01*
X39000Y76567D01*
X39083Y76900D01*
X39292Y77133D01*
X39542Y77200D01*
X39792Y77167D01*
X40000Y77033D01*
X40417Y76367D01*
X40708Y76067D01*
X41125Y75867D01*
X41500Y75800D01*
Y77200D01*
G01Y79000D02*
X39000D01*
X39500Y78600D01*
G01X41500D02*
Y79400D01*
G01X45500Y81833D02*
X43000D01*
Y82667D01*
X43125Y82933D01*
X43292Y83100D01*
X43625Y83167D01*
X43958Y83100D01*
X44167Y82900D01*
X44292Y82667D01*
Y81833D01*
G01Y82667D02*
X45500Y83167D01*
G01X43417Y84367D02*
X43167Y84567D01*
X43042Y84800D01*
X43000Y85067D01*
X43083Y85400D01*
X43292Y85633D01*
X43542Y85700D01*
X43792Y85667D01*
X44000Y85533D01*
X44417Y84867D01*
X44708Y84567D01*
X45125Y84367D01*
X45500Y84300D01*
Y85700D01*
G01X43417Y86867D02*
X43167Y87067D01*
X43042Y87300D01*
X43000Y87567D01*
X43083Y87900D01*
X43292Y88133D01*
X43542Y88200D01*
X43792Y88167D01*
X44000Y88033D01*
X44417Y87367D01*
X44708Y87067D01*
X45125Y86867D01*
X45500Y86800D01*
Y88200D01*
G01X43267Y79500D02*
Y77708D01*
X43400Y77333D01*
X43667Y77083D01*
X44000Y77000D01*
X44333Y77083D01*
X44600Y77333D01*
X44733Y77708D01*
Y79500D01*
G01X45867Y78042D02*
X46100Y78333D01*
X46300Y78500D01*
X46567Y78583D01*
X46800Y78500D01*
X46967Y78333D01*
X47100Y78083D01*
X47133Y77792D01*
X47100Y77542D01*
X46967Y77292D01*
X46767Y77083D01*
X46533Y77000D01*
X46267Y77083D01*
X46033Y77333D01*
X45900Y77708D01*
X45867Y78125D01*
X45933Y78667D01*
X46033Y78958D01*
X46200Y79250D01*
X46433Y79458D01*
X46667Y79500D01*
X46900Y79417D01*
X47067Y79208D01*
G01X51208Y103733D02*
X51083Y103533D01*
X51000Y103300D01*
Y103033D01*
X51125Y102733D01*
X51333Y102500D01*
X51583Y102333D01*
X52000Y102200D01*
X52375Y102167D01*
X52750Y102233D01*
X53000Y102333D01*
X53250Y102533D01*
X53417Y102767D01*
X53500Y103000D01*
Y103233D01*
X53417Y103467D01*
X53292Y103667D01*
X53125Y103833D01*
G01X53500Y105500D02*
X51000D01*
X51500Y105100D01*
G01X53500D02*
Y105900D01*
G01X51000Y108000D02*
X51083Y107733D01*
X51292Y107533D01*
X51542Y107400D01*
X51875Y107300D01*
X52250Y107267D01*
X52625Y107300D01*
X52958Y107400D01*
X53208Y107533D01*
X53417Y107733D01*
X53500Y108000D01*
X53417Y108267D01*
X53208Y108467D01*
X52958Y108600D01*
X52625Y108700D01*
X52250Y108733D01*
X51875Y108700D01*
X51542Y108600D01*
X51292Y108467D01*
X51083Y108267D01*
X51000Y108000D01*
G01X43500Y105333D02*
X41000D01*
Y106167D01*
X41125Y106433D01*
X41292Y106600D01*
X41625Y106667D01*
X41958Y106600D01*
X42167Y106400D01*
X42292Y106167D01*
Y105333D01*
G01Y106167D02*
X43500Y106667D01*
G01X43208Y107933D02*
X43417Y108167D01*
X43500Y108433D01*
X43417Y108700D01*
X43167Y108933D01*
X42792Y109100D01*
X42417Y109167D01*
X41958D01*
X41583Y109100D01*
X41250Y108933D01*
X41083Y108733D01*
X41000Y108500D01*
X41083Y108233D01*
X41250Y108033D01*
X41500Y107900D01*
X41833Y107833D01*
X42125Y107900D01*
X42417Y108067D01*
X42583Y108267D01*
X42625Y108500D01*
X42542Y108767D01*
X42333Y108967D01*
X41958Y109167D01*
G01X55500Y92833D02*
X53000D01*
Y93667D01*
X53125Y93933D01*
X53292Y94100D01*
X53625Y94167D01*
X53958Y94100D01*
X54167Y93900D01*
X54292Y93667D01*
Y92833D01*
G01Y93667D02*
X55500Y94167D01*
G01X53417Y95367D02*
X53167Y95567D01*
X53042Y95800D01*
X53000Y96067D01*
X53083Y96400D01*
X53292Y96633D01*
X53542Y96700D01*
X53792Y96667D01*
X54000Y96533D01*
X54417Y95867D01*
X54708Y95567D01*
X55125Y95367D01*
X55500Y95300D01*
Y96700D01*
G01Y98900D02*
X53000D01*
X54792Y97667D01*
Y99333D01*
G01X53708Y142733D02*
X53583Y142533D01*
X53500Y142300D01*
Y142033D01*
X53625Y141733D01*
X53833Y141500D01*
X54083Y141333D01*
X54500Y141200D01*
X54875Y141167D01*
X55250Y141233D01*
X55500Y141333D01*
X55750Y141533D01*
X55917Y141767D01*
X56000Y142000D01*
Y142233D01*
X55917Y142467D01*
X55792Y142667D01*
X55625Y142833D01*
G01X56000Y144500D02*
X53500D01*
X54000Y144100D01*
G01X56000D02*
Y144900D01*
G01X55500Y146267D02*
X55792Y146467D01*
X55958Y146733D01*
X56000Y147033D01*
X55958Y147300D01*
X55750Y147567D01*
X55500Y147733D01*
X55250Y147767D01*
X54958Y147700D01*
X54750Y147467D01*
X54667Y147233D01*
Y146933D01*
G01Y147233D02*
X54542Y147433D01*
X54333Y147600D01*
X54083Y147667D01*
X53833Y147600D01*
X53625Y147433D01*
X53500Y147133D01*
X53542Y146833D01*
X53708Y146533D01*
G01X40708Y131733D02*
X40583Y131533D01*
X40500Y131300D01*
Y131033D01*
X40625Y130733D01*
X40833Y130500D01*
X41083Y130333D01*
X41500Y130200D01*
X41875Y130167D01*
X42250Y130233D01*
X42500Y130333D01*
X42750Y130533D01*
X42917Y130767D01*
X43000Y131000D01*
Y131233D01*
X42917Y131467D01*
X42792Y131667D01*
X42625Y131833D01*
G01X41958Y132867D02*
X41667Y133100D01*
X41500Y133300D01*
X41417Y133567D01*
X41500Y133800D01*
X41667Y133967D01*
X41917Y134100D01*
X42208Y134133D01*
X42458Y134100D01*
X42708Y133967D01*
X42917Y133767D01*
X43000Y133533D01*
X42917Y133267D01*
X42667Y133033D01*
X42292Y132900D01*
X41875Y132867D01*
X41333Y132933D01*
X41042Y133033D01*
X40750Y133200D01*
X40542Y133433D01*
X40500Y133667D01*
X40583Y133900D01*
X40792Y134067D01*
G01X50208Y142733D02*
X50083Y142533D01*
X50000Y142300D01*
Y142033D01*
X50125Y141733D01*
X50333Y141500D01*
X50583Y141333D01*
X51000Y141200D01*
X51375Y141167D01*
X51750Y141233D01*
X52000Y141333D01*
X52250Y141533D01*
X52417Y141767D01*
X52500Y142000D01*
Y142233D01*
X52417Y142467D01*
X52292Y142667D01*
X52125Y142833D01*
G01X52500Y144500D02*
X50000D01*
X50500Y144100D01*
G01X52500D02*
Y144900D01*
G01X50417Y146367D02*
X50167Y146567D01*
X50042Y146800D01*
X50000Y147067D01*
X50083Y147400D01*
X50292Y147633D01*
X50542Y147700D01*
X50792Y147667D01*
X51000Y147533D01*
X51417Y146867D01*
X51708Y146567D01*
X52125Y146367D01*
X52500Y146300D01*
Y147700D01*
G01X54267Y134000D02*
Y132208D01*
X54400Y131833D01*
X54667Y131583D01*
X55000Y131500D01*
X55333Y131583D01*
X55600Y131833D01*
X55733Y132208D01*
Y134000D01*
G01X57900Y131500D02*
Y134000D01*
X56667Y132208D01*
X58333D01*
G01X41208Y158233D02*
X41083Y158033D01*
X41000Y157800D01*
Y157533D01*
X41125Y157233D01*
X41333Y157000D01*
X41583Y156833D01*
X42000Y156700D01*
X42375Y156667D01*
X42750Y156733D01*
X43000Y156833D01*
X43250Y157033D01*
X43417Y157267D01*
X43500Y157500D01*
Y157733D01*
X43417Y157967D01*
X43292Y158167D01*
X43125Y158333D01*
G01X43000Y159267D02*
X43292Y159467D01*
X43458Y159733D01*
X43500Y160033D01*
X43458Y160300D01*
X43250Y160567D01*
X43000Y160733D01*
X42750Y160767D01*
X42458Y160700D01*
X42250Y160467D01*
X42167Y160233D01*
Y159933D01*
G01Y160233D02*
X42042Y160433D01*
X41833Y160600D01*
X41583Y160667D01*
X41333Y160600D01*
X41125Y160433D01*
X41000Y160133D01*
X41042Y159833D01*
X41208Y159533D01*
G01X47267Y171500D02*
Y174000D01*
X47933D01*
X48200Y173875D01*
X48400Y173708D01*
X48567Y173458D01*
X48700Y173167D01*
X48733Y172750D01*
X48700Y172333D01*
X48567Y172042D01*
X48400Y171792D01*
X48200Y171625D01*
X47933Y171500D01*
X47267D01*
G01X50500D02*
Y174000D01*
X50100Y173500D01*
G01Y171500D02*
X50900D01*
G01X53833Y176000D02*
Y178500D01*
X54667D01*
X54933Y178375D01*
X55100Y178208D01*
X55167Y177875D01*
X55100Y177542D01*
X54900Y177333D01*
X54667Y177208D01*
X53833D01*
G01X54667D02*
X55167Y176000D01*
G01X56367Y178083D02*
X56567Y178333D01*
X56800Y178458D01*
X57067Y178500D01*
X57400Y178417D01*
X57633Y178208D01*
X57700Y177958D01*
X57667Y177708D01*
X57533Y177500D01*
X56867Y177083D01*
X56567Y176792D01*
X56367Y176375D01*
X56300Y176000D01*
X57700D01*
G01X42333Y192000D02*
Y189500D01*
X43667D01*
G01X46167D02*
X44833D01*
Y192000D01*
X46167D01*
G01X45633Y190792D02*
X44833D01*
G01X47267Y189500D02*
Y192000D01*
X47933D01*
X48200Y191875D01*
X48400Y191708D01*
X48567Y191458D01*
X48700Y191167D01*
X48733Y190750D01*
X48700Y190333D01*
X48567Y190042D01*
X48400Y189792D01*
X48200Y189625D01*
X47933Y189500D01*
X47267D01*
G01X50500D02*
Y192000D01*
X50100Y191500D01*
G01Y189500D02*
X50900D01*
G01X67333Y6000D02*
Y8500D01*
X68133D01*
X68400Y8375D01*
X68600Y8083D01*
X68667Y7750D01*
X68600Y7417D01*
X68433Y7167D01*
X68133Y7042D01*
X67333D01*
G01X70900Y6000D02*
Y8500D01*
X69667Y6708D01*
X71333D01*
G01X69708Y57233D02*
X69583Y57033D01*
X69500Y56800D01*
Y56533D01*
X69625Y56233D01*
X69833Y56000D01*
X70083Y55833D01*
X70500Y55700D01*
X70875Y55667D01*
X71250Y55733D01*
X71500Y55833D01*
X71750Y56033D01*
X71917Y56267D01*
X72000Y56500D01*
Y56733D01*
X71917Y56967D01*
X71792Y57167D01*
X71625Y57333D01*
G01X69917Y58367D02*
X69667Y58567D01*
X69542Y58800D01*
X69500Y59067D01*
X69583Y59400D01*
X69792Y59633D01*
X70042Y59700D01*
X70292Y59667D01*
X70500Y59533D01*
X70917Y58867D01*
X71208Y58567D01*
X71625Y58367D01*
X72000Y58300D01*
Y59700D01*
G01Y61900D02*
X69500D01*
X71292Y60667D01*
Y62333D01*
G01X69708Y106233D02*
X69583Y106033D01*
X69500Y105800D01*
Y105533D01*
X69625Y105233D01*
X69833Y105000D01*
X70083Y104833D01*
X70500Y104700D01*
X70875Y104667D01*
X71250Y104733D01*
X71500Y104833D01*
X71750Y105033D01*
X71917Y105267D01*
X72000Y105500D01*
Y105733D01*
X71917Y105967D01*
X71792Y106167D01*
X71625Y106333D01*
G01X72000Y108000D02*
X69500D01*
X70000Y107600D01*
G01X72000D02*
Y108400D01*
G01Y110500D02*
X69500D01*
X70000Y110100D01*
G01X72000D02*
Y110900D01*
G01X71708Y87233D02*
X71583Y87033D01*
X71500Y86800D01*
Y86533D01*
X71625Y86233D01*
X71833Y86000D01*
X72083Y85833D01*
X72500Y85700D01*
X72875Y85667D01*
X73250Y85733D01*
X73500Y85833D01*
X73750Y86033D01*
X73917Y86267D01*
X74000Y86500D01*
Y86733D01*
X73917Y86967D01*
X73792Y87167D01*
X73625Y87333D01*
G01X74000Y89000D02*
X71500D01*
X72000Y88600D01*
G01X74000D02*
Y89400D01*
G01X73708Y90933D02*
X73917Y91167D01*
X74000Y91433D01*
X73917Y91700D01*
X73667Y91933D01*
X73292Y92100D01*
X72917Y92167D01*
X72458D01*
X72083Y92100D01*
X71750Y91933D01*
X71583Y91733D01*
X71500Y91500D01*
X71583Y91233D01*
X71750Y91033D01*
X72000Y90900D01*
X72333Y90833D01*
X72625Y90900D01*
X72917Y91067D01*
X73083Y91267D01*
X73125Y91500D01*
X73042Y91767D01*
X72833Y91967D01*
X72458Y92167D01*
G01X67500Y92833D02*
X65000D01*
Y93667D01*
X65125Y93933D01*
X65292Y94100D01*
X65625Y94167D01*
X65958Y94100D01*
X66167Y93900D01*
X66292Y93667D01*
Y92833D01*
G01Y93667D02*
X67500Y94167D01*
G01X65417Y95367D02*
X65167Y95567D01*
X65042Y95800D01*
X65000Y96067D01*
X65083Y96400D01*
X65292Y96633D01*
X65542Y96700D01*
X65792Y96667D01*
X66000Y96533D01*
X66417Y95867D01*
X66708Y95567D01*
X67125Y95367D01*
X67500Y95300D01*
Y96700D01*
G01Y98500D02*
X65000D01*
X65500Y98100D01*
G01X67500D02*
Y98900D01*
G01X61500Y92833D02*
X59000D01*
Y93667D01*
X59125Y93933D01*
X59292Y94100D01*
X59625Y94167D01*
X59958Y94100D01*
X60167Y93900D01*
X60292Y93667D01*
Y92833D01*
G01Y93667D02*
X61500Y94167D01*
G01X59417Y95367D02*
X59167Y95567D01*
X59042Y95800D01*
X59000Y96067D01*
X59083Y96400D01*
X59292Y96633D01*
X59542Y96700D01*
X59792Y96667D01*
X60000Y96533D01*
X60417Y95867D01*
X60708Y95567D01*
X61125Y95367D01*
X61500Y95300D01*
Y96700D01*
G01X61000Y97767D02*
X61292Y97967D01*
X61458Y98233D01*
X61500Y98533D01*
X61458Y98800D01*
X61250Y99067D01*
X61000Y99233D01*
X60750Y99267D01*
X60458Y99200D01*
X60250Y98967D01*
X60167Y98733D01*
Y98433D01*
G01Y98733D02*
X60042Y98933D01*
X59833Y99100D01*
X59583Y99167D01*
X59333Y99100D01*
X59125Y98933D01*
X59000Y98633D01*
X59042Y98333D01*
X59208Y98033D01*
G01X78333Y101500D02*
Y104000D01*
X79167D01*
X79433Y103875D01*
X79600Y103708D01*
X79667Y103375D01*
X79600Y103042D01*
X79400Y102833D01*
X79167Y102708D01*
X78333D01*
G01X79167D02*
X79667Y101500D01*
G01X81500D02*
Y104000D01*
X81100Y103500D01*
G01Y101500D02*
X81900D01*
G01X83267Y102000D02*
X83467Y101708D01*
X83733Y101542D01*
X84033Y101500D01*
X84300Y101542D01*
X84567Y101750D01*
X84733Y102000D01*
X84767Y102250D01*
X84700Y102542D01*
X84467Y102750D01*
X84233Y102833D01*
X83933D01*
G01X84233D02*
X84433Y102958D01*
X84600Y103167D01*
X84667Y103417D01*
X84600Y103667D01*
X84433Y103875D01*
X84133Y104000D01*
X83833Y103958D01*
X83533Y103792D01*
G01X82000Y116333D02*
X79500D01*
Y117167D01*
X79625Y117433D01*
X79792Y117600D01*
X80125Y117667D01*
X80458Y117600D01*
X80667Y117400D01*
X80792Y117167D01*
Y116333D01*
G01Y117167D02*
X82000Y117667D01*
G01Y119500D02*
X79500D01*
X80000Y119100D01*
G01X82000D02*
Y119900D01*
G01X79917Y121367D02*
X79667Y121567D01*
X79542Y121800D01*
X79500Y122067D01*
X79583Y122400D01*
X79792Y122633D01*
X80042Y122700D01*
X80292Y122667D01*
X80500Y122533D01*
X80917Y121867D01*
X81208Y121567D01*
X81625Y121367D01*
X82000Y121300D01*
Y122700D01*
G01X72833Y131000D02*
Y133500D01*
X73667D01*
X73933Y133375D01*
X74100Y133208D01*
X74167Y132875D01*
X74100Y132542D01*
X73900Y132333D01*
X73667Y132208D01*
X72833D01*
G01X73667D02*
X74167Y131000D01*
G01X76000D02*
Y133500D01*
X75600Y133000D01*
G01Y131000D02*
X76400D01*
G01X77867Y132042D02*
X78100Y132333D01*
X78300Y132500D01*
X78567Y132583D01*
X78800Y132500D01*
X78967Y132333D01*
X79100Y132083D01*
X79133Y131792D01*
X79100Y131542D01*
X78967Y131292D01*
X78767Y131083D01*
X78533Y131000D01*
X78267Y131083D01*
X78033Y131333D01*
X77900Y131708D01*
X77867Y132125D01*
X77933Y132667D01*
X78033Y132958D01*
X78200Y133250D01*
X78433Y133458D01*
X78667Y133500D01*
X78900Y133417D01*
X79067Y133208D01*
G01X60833Y164000D02*
Y166500D01*
X61667D01*
X61933Y166375D01*
X62100Y166208D01*
X62167Y165875D01*
X62100Y165542D01*
X61900Y165333D01*
X61667Y165208D01*
X60833D01*
G01X61667D02*
X62167Y164000D01*
G01X64000D02*
X64233Y164042D01*
X64500Y164167D01*
X64667Y164375D01*
X64733Y164667D01*
X64667Y164958D01*
X64467Y165208D01*
X64167Y165333D01*
X63833D01*
X63633Y165417D01*
X63467Y165625D01*
X63400Y165917D01*
X63500Y166208D01*
X63733Y166417D01*
X64000Y166500D01*
X64267Y166417D01*
X64500Y166208D01*
X64600Y165917D01*
X64533Y165625D01*
X64367Y165417D01*
X64167Y165333D01*
X63833D01*
X63533Y165208D01*
X63333Y164958D01*
X63267Y164667D01*
X63333Y164375D01*
X63500Y164167D01*
X63767Y164042D01*
X64000Y164000D01*
G01X74397Y166000D02*
Y164208D01*
X74530Y163833D01*
X74797Y163583D01*
X75130Y163500D01*
X75463Y163583D01*
X75730Y163833D01*
X75863Y164208D01*
Y166000D01*
G01X76897Y164000D02*
X77096Y163708D01*
X77363Y163542D01*
X77663Y163500D01*
X77930Y163542D01*
X78197Y163750D01*
X78363Y164000D01*
X78397Y164250D01*
X78330Y164542D01*
X78097Y164750D01*
X77863Y164833D01*
X77563D01*
G01X77863D02*
X78063Y164958D01*
X78230Y165167D01*
X78297Y165417D01*
X78230Y165667D01*
X78063Y165875D01*
X77763Y166000D01*
X77463Y165958D01*
X77163Y165792D01*
G01X81000Y189333D02*
X78500D01*
Y190167D01*
X78625Y190433D01*
X78792Y190600D01*
X79125Y190667D01*
X79458Y190600D01*
X79667Y190400D01*
X79792Y190167D01*
Y189333D01*
G01Y190167D02*
X81000Y190667D01*
G01X80500Y191767D02*
X80792Y191967D01*
X80958Y192233D01*
X81000Y192533D01*
X80958Y192800D01*
X80750Y193067D01*
X80500Y193233D01*
X80250Y193267D01*
X79958Y193200D01*
X79750Y192967D01*
X79667Y192733D01*
Y192433D01*
G01Y192733D02*
X79542Y192933D01*
X79333Y193100D01*
X79083Y193167D01*
X78833Y193100D01*
X78625Y192933D01*
X78500Y192633D01*
X78542Y192333D01*
X78708Y192033D01*
G01X103333Y6000D02*
Y8500D01*
X104133D01*
X104400Y8375D01*
X104600Y8083D01*
X104667Y7750D01*
X104600Y7417D01*
X104433Y7167D01*
X104133Y7042D01*
X103333D01*
G01X106500Y6000D02*
Y8500D01*
X106100Y8000D01*
G01Y6000D02*
X106900D01*
G01X93733Y57292D02*
X93533Y57417D01*
X93300Y57500D01*
X93033D01*
X92733Y57375D01*
X92500Y57167D01*
X92333Y56917D01*
X92200Y56500D01*
X92167Y56125D01*
X92233Y55750D01*
X92333Y55500D01*
X92533Y55250D01*
X92767Y55083D01*
X93000Y55000D01*
X93233D01*
X93467Y55083D01*
X93667Y55208D01*
X93833Y55375D01*
G01X94867Y57083D02*
X95067Y57333D01*
X95300Y57458D01*
X95567Y57500D01*
X95900Y57417D01*
X96133Y57208D01*
X96200Y56958D01*
X96167Y56708D01*
X96033Y56500D01*
X95367Y56083D01*
X95067Y55792D01*
X94867Y55375D01*
X94800Y55000D01*
X96200D01*
G01X97267Y55375D02*
X97467Y55167D01*
X97700Y55042D01*
X98000Y55000D01*
X98300Y55083D01*
X98533Y55250D01*
X98700Y55542D01*
X98733Y55875D01*
X98667Y56208D01*
X98500Y56417D01*
X98267Y56583D01*
X98033Y56625D01*
X97800Y56583D01*
X97500Y56417D01*
X97600Y57500D01*
X98500D01*
G01X92333Y49500D02*
Y52000D01*
X93167D01*
X93433Y51875D01*
X93600Y51708D01*
X93667Y51375D01*
X93600Y51042D01*
X93400Y50833D01*
X93167Y50708D01*
X92333D01*
G01X93167D02*
X93667Y49500D01*
G01X94867Y51583D02*
X95067Y51833D01*
X95300Y51958D01*
X95567Y52000D01*
X95900Y51917D01*
X96133Y51708D01*
X96200Y51458D01*
X96167Y51208D01*
X96033Y51000D01*
X95367Y50583D01*
X95067Y50292D01*
X94867Y49875D01*
X94800Y49500D01*
X96200D01*
G01X97433Y49792D02*
X97667Y49583D01*
X97933Y49500D01*
X98200Y49583D01*
X98433Y49833D01*
X98600Y50208D01*
X98667Y50583D01*
Y51042D01*
X98600Y51417D01*
X98433Y51750D01*
X98233Y51917D01*
X98000Y52000D01*
X97733Y51917D01*
X97533Y51750D01*
X97400Y51500D01*
X97333Y51167D01*
X97400Y50875D01*
X97567Y50583D01*
X97767Y50417D01*
X98000Y50375D01*
X98267Y50458D01*
X98467Y50667D01*
X98667Y51042D01*
G01X93733Y62792D02*
X93533Y62917D01*
X93300Y63000D01*
X93033D01*
X92733Y62875D01*
X92500Y62667D01*
X92333Y62417D01*
X92200Y62000D01*
X92167Y61625D01*
X92233Y61250D01*
X92333Y61000D01*
X92533Y60750D01*
X92767Y60583D01*
X93000Y60500D01*
X93233D01*
X93467Y60583D01*
X93667Y60708D01*
X93833Y60875D01*
G01X94867Y62583D02*
X95067Y62833D01*
X95300Y62958D01*
X95567Y63000D01*
X95900Y62917D01*
X96133Y62708D01*
X96200Y62458D01*
X96167Y62208D01*
X96033Y62000D01*
X95367Y61583D01*
X95067Y61292D01*
X94867Y60875D01*
X94800Y60500D01*
X96200D01*
G01X97367Y62583D02*
X97567Y62833D01*
X97800Y62958D01*
X98067Y63000D01*
X98400Y62917D01*
X98633Y62708D01*
X98700Y62458D01*
X98667Y62208D01*
X98533Y62000D01*
X97867Y61583D01*
X97567Y61292D01*
X97367Y60875D01*
X97300Y60500D01*
X98700D01*
G01X106000Y64833D02*
X106250Y65000D01*
X106417Y65200D01*
X106500Y65433D01*
X106417Y65700D01*
X106250Y65900D01*
X106000Y66100D01*
X105667Y66167D01*
X104000D01*
G01X104417Y67367D02*
X104167Y67567D01*
X104042Y67800D01*
X104000Y68067D01*
X104083Y68400D01*
X104292Y68633D01*
X104542Y68700D01*
X104792Y68667D01*
X105000Y68533D01*
X105417Y67867D01*
X105708Y67567D01*
X106125Y67367D01*
X106500Y67300D01*
Y68700D01*
G01X95000Y74333D02*
X92500D01*
Y75167D01*
X92625Y75433D01*
X92792Y75600D01*
X93125Y75667D01*
X93458Y75600D01*
X93667Y75400D01*
X93792Y75167D01*
Y74333D01*
G01Y75167D02*
X95000Y75667D01*
G01X92917Y76867D02*
X92667Y77067D01*
X92542Y77300D01*
X92500Y77567D01*
X92583Y77900D01*
X92792Y78133D01*
X93042Y78200D01*
X93292Y78167D01*
X93500Y78033D01*
X93917Y77367D01*
X94208Y77067D01*
X94625Y76867D01*
X95000Y76800D01*
Y78200D01*
G01X94625Y79267D02*
X94833Y79467D01*
X94958Y79700D01*
X95000Y80000D01*
X94917Y80300D01*
X94750Y80533D01*
X94458Y80700D01*
X94125Y80733D01*
X93792Y80667D01*
X93583Y80500D01*
X93417Y80267D01*
X93375Y80033D01*
X93417Y79800D01*
X93583Y79500D01*
X92500Y79600D01*
Y80500D01*
G01X92333Y66000D02*
Y68500D01*
X93167D01*
X93433Y68375D01*
X93600Y68208D01*
X93667Y67875D01*
X93600Y67542D01*
X93400Y67333D01*
X93167Y67208D01*
X92333D01*
G01X93167D02*
X93667Y66000D01*
G01X94867Y68083D02*
X95067Y68333D01*
X95300Y68458D01*
X95567Y68500D01*
X95900Y68417D01*
X96133Y68208D01*
X96200Y67958D01*
X96167Y67708D01*
X96033Y67500D01*
X95367Y67083D01*
X95067Y66792D01*
X94867Y66375D01*
X94800Y66000D01*
X96200D01*
G01X98000D02*
X98233Y66042D01*
X98500Y66167D01*
X98667Y66375D01*
X98733Y66667D01*
X98667Y66958D01*
X98467Y67208D01*
X98167Y67333D01*
X97833D01*
X97633Y67417D01*
X97467Y67625D01*
X97400Y67917D01*
X97500Y68208D01*
X97733Y68417D01*
X98000Y68500D01*
X98267Y68417D01*
X98500Y68208D01*
X98600Y67917D01*
X98533Y67625D01*
X98367Y67417D01*
X98167Y67333D01*
X97833D01*
X97533Y67208D01*
X97333Y66958D01*
X97267Y66667D01*
X97333Y66375D01*
X97500Y66167D01*
X97767Y66042D01*
X98000Y66000D01*
G01X82708Y91733D02*
X82583Y91533D01*
X82500Y91300D01*
Y91033D01*
X82625Y90733D01*
X82833Y90500D01*
X83083Y90333D01*
X83500Y90200D01*
X83875Y90167D01*
X84250Y90233D01*
X84500Y90333D01*
X84750Y90533D01*
X84917Y90767D01*
X85000Y91000D01*
Y91233D01*
X84917Y91467D01*
X84792Y91667D01*
X84625Y91833D01*
G01X82917Y92867D02*
X82667Y93067D01*
X82542Y93300D01*
X82500Y93567D01*
X82583Y93900D01*
X82792Y94133D01*
X83042Y94200D01*
X83292Y94167D01*
X83500Y94033D01*
X83917Y93367D01*
X84208Y93067D01*
X84625Y92867D01*
X85000Y92800D01*
Y94200D01*
G01X82500Y96000D02*
X82583Y95733D01*
X82792Y95533D01*
X83042Y95400D01*
X83375Y95300D01*
X83750Y95267D01*
X84125Y95300D01*
X84458Y95400D01*
X84708Y95533D01*
X84917Y95733D01*
X85000Y96000D01*
X84917Y96267D01*
X84708Y96467D01*
X84458Y96600D01*
X84125Y96700D01*
X83750Y96733D01*
X83375Y96700D01*
X83042Y96600D01*
X82792Y96467D01*
X82583Y96267D01*
X82500Y96000D01*
G01X91833Y96500D02*
Y99000D01*
X92667D01*
X92933Y98875D01*
X93100Y98708D01*
X93167Y98375D01*
X93100Y98042D01*
X92900Y97833D01*
X92667Y97708D01*
X91833D01*
G01X92667D02*
X93167Y96500D01*
G01X95000D02*
Y99000D01*
X94600Y98500D01*
G01Y96500D02*
X95400D01*
G01X97900D02*
Y99000D01*
X96667Y97208D01*
X98333D01*
G01X98333Y128000D02*
Y130500D01*
X99167D01*
X99433Y130375D01*
X99600Y130208D01*
X99667Y129875D01*
X99600Y129542D01*
X99400Y129333D01*
X99167Y129208D01*
X98333D01*
G01X99167D02*
X99667Y128000D01*
G01X101500D02*
Y130500D01*
X101100Y130000D01*
G01Y128000D02*
X101900D01*
G01X104000Y130500D02*
X103733Y130417D01*
X103533Y130208D01*
X103400Y129958D01*
X103300Y129625D01*
X103267Y129250D01*
X103300Y128875D01*
X103400Y128542D01*
X103533Y128292D01*
X103733Y128083D01*
X104000Y128000D01*
X104267Y128083D01*
X104467Y128292D01*
X104600Y128542D01*
X104700Y128875D01*
X104733Y129250D01*
X104700Y129625D01*
X104600Y129958D01*
X104467Y130208D01*
X104267Y130417D01*
X104000Y130500D01*
G01X87767Y126500D02*
Y124708D01*
X87900Y124333D01*
X88167Y124083D01*
X88500Y124000D01*
X88833Y124083D01*
X89100Y124333D01*
X89233Y124708D01*
Y126500D01*
G01X90267Y124375D02*
X90467Y124167D01*
X90700Y124042D01*
X91000Y124000D01*
X91300Y124083D01*
X91533Y124250D01*
X91700Y124542D01*
X91733Y124875D01*
X91667Y125208D01*
X91500Y125417D01*
X91267Y125583D01*
X91033Y125625D01*
X90800Y125583D01*
X90500Y125417D01*
X90600Y126500D01*
X91500D01*
G01X98733Y138792D02*
X98533Y138917D01*
X98300Y139000D01*
X98033D01*
X97733Y138875D01*
X97500Y138667D01*
X97333Y138417D01*
X97200Y138000D01*
X97167Y137625D01*
X97233Y137250D01*
X97333Y137000D01*
X97533Y136750D01*
X97767Y136583D01*
X98000Y136500D01*
X98233D01*
X98467Y136583D01*
X98667Y136708D01*
X98833Y136875D01*
G01X100500Y136500D02*
Y139000D01*
X100100Y138500D01*
G01Y136500D02*
X100900D01*
G01X102367Y137542D02*
X102600Y137833D01*
X102800Y138000D01*
X103067Y138083D01*
X103300Y138000D01*
X103467Y137833D01*
X103600Y137583D01*
X103633Y137292D01*
X103600Y137042D01*
X103467Y136792D01*
X103267Y136583D01*
X103033Y136500D01*
X102767Y136583D01*
X102533Y136833D01*
X102400Y137208D01*
X102367Y137625D01*
X102433Y138167D01*
X102533Y138458D01*
X102700Y138750D01*
X102933Y138958D01*
X103167Y139000D01*
X103400Y138917D01*
X103567Y138708D01*
G01X98733Y135292D02*
X98533Y135417D01*
X98300Y135500D01*
X98033D01*
X97733Y135375D01*
X97500Y135167D01*
X97333Y134917D01*
X97200Y134500D01*
X97167Y134125D01*
X97233Y133750D01*
X97333Y133500D01*
X97533Y133250D01*
X97767Y133083D01*
X98000Y133000D01*
X98233D01*
X98467Y133083D01*
X98667Y133208D01*
X98833Y133375D01*
G01X100500Y133000D02*
Y135500D01*
X100100Y135000D01*
G01Y133000D02*
X100900D01*
G01X102267Y133375D02*
X102467Y133167D01*
X102700Y133042D01*
X103000Y133000D01*
X103300Y133083D01*
X103533Y133250D01*
X103700Y133542D01*
X103733Y133875D01*
X103667Y134208D01*
X103500Y134417D01*
X103267Y134583D01*
X103033Y134625D01*
X102800Y134583D01*
X102500Y134417D01*
X102600Y135500D01*
X103500D01*
G01X84233Y170792D02*
X84033Y170917D01*
X83800Y171000D01*
X83533D01*
X83233Y170875D01*
X83000Y170667D01*
X82833Y170417D01*
X82700Y170000D01*
X82667Y169625D01*
X82733Y169250D01*
X82833Y169000D01*
X83033Y168750D01*
X83267Y168583D01*
X83500Y168500D01*
X83733D01*
X83967Y168583D01*
X84167Y168708D01*
X84333Y168875D01*
G01X86000Y168500D02*
Y171000D01*
X85600Y170500D01*
G01Y168500D02*
X86400D01*
G01X88433D02*
X88500Y169042D01*
X88600Y169500D01*
X88733Y169917D01*
X88900Y170375D01*
X89167Y171000D01*
X87833D01*
G01X96733Y172792D02*
X96533Y172917D01*
X96300Y173000D01*
X96033D01*
X95733Y172875D01*
X95500Y172667D01*
X95333Y172417D01*
X95200Y172000D01*
X95167Y171625D01*
X95233Y171250D01*
X95333Y171000D01*
X95533Y170750D01*
X95767Y170583D01*
X96000Y170500D01*
X96233D01*
X96467Y170583D01*
X96667Y170708D01*
X96833Y170875D01*
G01X98433Y170500D02*
X98500Y171042D01*
X98600Y171500D01*
X98733Y171917D01*
X98900Y172375D01*
X99167Y173000D01*
X97833D01*
G01X105000Y158833D02*
X102500D01*
Y159667D01*
X102625Y159933D01*
X102792Y160100D01*
X103125Y160167D01*
X103458Y160100D01*
X103667Y159900D01*
X103792Y159667D01*
Y158833D01*
G01Y159667D02*
X105000Y160167D01*
G01Y162000D02*
X102500D01*
X103000Y161600D01*
G01X105000D02*
Y162400D01*
G01Y164500D02*
X104958Y164733D01*
X104833Y165000D01*
X104625Y165167D01*
X104333Y165233D01*
X104042Y165167D01*
X103792Y164967D01*
X103667Y164667D01*
Y164333D01*
X103583Y164133D01*
X103375Y163967D01*
X103083Y163900D01*
X102792Y164000D01*
X102583Y164233D01*
X102500Y164500D01*
X102583Y164767D01*
X102792Y165000D01*
X103083Y165100D01*
X103375Y165033D01*
X103583Y164867D01*
X103667Y164667D01*
Y164333D01*
X103792Y164033D01*
X104042Y163833D01*
X104333Y163767D01*
X104625Y163833D01*
X104833Y164000D01*
X104958Y164267D01*
X105000Y164500D01*
G01X85208Y190733D02*
X85083Y190533D01*
X85000Y190300D01*
Y190033D01*
X85125Y189733D01*
X85333Y189500D01*
X85583Y189333D01*
X86000Y189200D01*
X86375Y189167D01*
X86750Y189233D01*
X87000Y189333D01*
X87250Y189533D01*
X87417Y189767D01*
X87500Y190000D01*
Y190233D01*
X87417Y190467D01*
X87292Y190667D01*
X87125Y190833D01*
G01X87500Y192900D02*
X85000D01*
X86792Y191667D01*
Y193333D01*
G01X90767Y192500D02*
Y190708D01*
X90900Y190333D01*
X91167Y190083D01*
X91500Y190000D01*
X91833Y190083D01*
X92100Y190333D01*
X92233Y190708D01*
Y192500D01*
G01X93367Y192083D02*
X93567Y192333D01*
X93800Y192458D01*
X94067Y192500D01*
X94400Y192417D01*
X94633Y192208D01*
X94700Y191958D01*
X94667Y191708D01*
X94533Y191500D01*
X93867Y191083D01*
X93567Y190792D01*
X93367Y190375D01*
X93300Y190000D01*
X94700D01*
G01X130000Y64333D02*
X130250Y64500D01*
X130417Y64700D01*
X130500Y64933D01*
X130417Y65200D01*
X130250Y65400D01*
X130000Y65600D01*
X129667Y65667D01*
X128000D01*
G01X130000Y66767D02*
X130292Y66967D01*
X130458Y67233D01*
X130500Y67533D01*
X130458Y67800D01*
X130250Y68067D01*
X130000Y68233D01*
X129750Y68267D01*
X129458Y68200D01*
X129250Y67967D01*
X129167Y67733D01*
Y67433D01*
G01Y67733D02*
X129042Y67933D01*
X128833Y68100D01*
X128583Y68167D01*
X128333Y68100D01*
X128125Y67933D01*
X128000Y67633D01*
X128042Y67333D01*
X128208Y67033D01*
G01X118000Y64833D02*
X118250Y65000D01*
X118417Y65200D01*
X118500Y65433D01*
X118417Y65700D01*
X118250Y65900D01*
X118000Y66100D01*
X117667Y66167D01*
X116000D01*
G01X118125Y67267D02*
X118333Y67467D01*
X118458Y67700D01*
X118500Y68000D01*
X118417Y68300D01*
X118250Y68533D01*
X117958Y68700D01*
X117625Y68733D01*
X117292Y68667D01*
X117083Y68500D01*
X116917Y68267D01*
X116875Y68033D01*
X116917Y67800D01*
X117083Y67500D01*
X116000Y67600D01*
Y68500D01*
G01X115000Y132333D02*
X112500D01*
Y133167D01*
X112625Y133433D01*
X112792Y133600D01*
X113125Y133667D01*
X113458Y133600D01*
X113667Y133400D01*
X113792Y133167D01*
Y132333D01*
G01Y133167D02*
X115000Y133667D01*
G01Y135433D02*
X114458Y135500D01*
X114000Y135600D01*
X113583Y135733D01*
X113125Y135900D01*
X112500Y136167D01*
Y134833D01*
G01X118500Y132333D02*
X116000D01*
Y133167D01*
X116125Y133433D01*
X116292Y133600D01*
X116625Y133667D01*
X116958Y133600D01*
X117167Y133400D01*
X117292Y133167D01*
Y132333D01*
G01Y133167D02*
X118500Y133667D01*
G01X117458Y134867D02*
X117167Y135100D01*
X117000Y135300D01*
X116917Y135567D01*
X117000Y135800D01*
X117167Y135967D01*
X117417Y136100D01*
X117708Y136133D01*
X117958Y136100D01*
X118208Y135967D01*
X118417Y135767D01*
X118500Y135533D01*
X118417Y135267D01*
X118167Y135033D01*
X117792Y134900D01*
X117375Y134867D01*
X116833Y134933D01*
X116542Y135033D01*
X116250Y135200D01*
X116042Y135433D01*
X116000Y135667D01*
X116083Y135900D01*
X116292Y136067D01*
G01X108208Y160233D02*
X108083Y160033D01*
X108000Y159800D01*
Y159533D01*
X108125Y159233D01*
X108333Y159000D01*
X108583Y158833D01*
X109000Y158700D01*
X109375Y158667D01*
X109750Y158733D01*
X110000Y158833D01*
X110250Y159033D01*
X110417Y159267D01*
X110500Y159500D01*
Y159733D01*
X110417Y159967D01*
X110292Y160167D01*
X110125Y160333D01*
G01X110500Y162000D02*
X108000D01*
X108500Y161600D01*
G01X110500D02*
Y162400D01*
G01Y164900D02*
X108000D01*
X109792Y163667D01*
Y165333D01*
G01X107208Y190733D02*
X107083Y190533D01*
X107000Y190300D01*
Y190033D01*
X107125Y189733D01*
X107333Y189500D01*
X107583Y189333D01*
X108000Y189200D01*
X108375Y189167D01*
X108750Y189233D01*
X109000Y189333D01*
X109250Y189533D01*
X109417Y189767D01*
X109500Y190000D01*
Y190233D01*
X109417Y190467D01*
X109292Y190667D01*
X109125Y190833D01*
G01X107417Y191867D02*
X107167Y192067D01*
X107042Y192300D01*
X107000Y192567D01*
X107083Y192900D01*
X107292Y193133D01*
X107542Y193200D01*
X107792Y193167D01*
X108000Y193033D01*
X108417Y192367D01*
X108708Y192067D01*
X109125Y191867D01*
X109500Y191800D01*
Y193200D01*
G01X137833Y5500D02*
Y8000D01*
X138633D01*
X138900Y7875D01*
X139100Y7583D01*
X139167Y7250D01*
X139100Y6917D01*
X138933Y6667D01*
X138633Y6542D01*
X137833D01*
G01X140267Y6000D02*
X140467Y5708D01*
X140733Y5542D01*
X141033Y5500D01*
X141300Y5542D01*
X141567Y5750D01*
X141733Y6000D01*
X141767Y6250D01*
X141700Y6542D01*
X141467Y6750D01*
X141233Y6833D01*
X140933D01*
G01X141233D02*
X141433Y6958D01*
X141600Y7167D01*
X141667Y7417D01*
X141600Y7667D01*
X141433Y7875D01*
X141133Y8000D01*
X140833Y7958D01*
X140533Y7792D01*
G01X141500Y64333D02*
X141750Y64500D01*
X141917Y64700D01*
X142000Y64933D01*
X141917Y65200D01*
X141750Y65400D01*
X141500Y65600D01*
X141167Y65667D01*
X139500D01*
G01X140958Y66867D02*
X140667Y67100D01*
X140500Y67300D01*
X140417Y67567D01*
X140500Y67800D01*
X140667Y67967D01*
X140917Y68100D01*
X141208Y68133D01*
X141458Y68100D01*
X141708Y67967D01*
X141917Y67767D01*
X142000Y67533D01*
X141917Y67267D01*
X141667Y67033D01*
X141292Y66900D01*
X140875Y66867D01*
X140333Y66933D01*
X140042Y67033D01*
X139750Y67200D01*
X139542Y67433D01*
X139500Y67667D01*
X139583Y67900D01*
X139792Y68067D01*
G01X133333Y102500D02*
Y105000D01*
X134167D01*
X134433Y104875D01*
X134600Y104708D01*
X134667Y104375D01*
X134600Y104042D01*
X134400Y103833D01*
X134167Y103708D01*
X133333D01*
G01X134167D02*
X134667Y102500D01*
G01X136500D02*
Y105000D01*
X136100Y104500D01*
G01Y102500D02*
X136900D01*
G01X138433Y102792D02*
X138667Y102583D01*
X138933Y102500D01*
X139200Y102583D01*
X139433Y102833D01*
X139600Y103208D01*
X139667Y103583D01*
Y104042D01*
X139600Y104417D01*
X139433Y104750D01*
X139233Y104917D01*
X139000Y105000D01*
X138733Y104917D01*
X138533Y104750D01*
X138400Y104500D01*
X138333Y104167D01*
X138400Y103875D01*
X138567Y103583D01*
X138767Y103417D01*
X139000Y103375D01*
X139267Y103458D01*
X139467Y103667D01*
X139667Y104042D01*
G01X135733Y120792D02*
X135533Y120917D01*
X135300Y121000D01*
X135033D01*
X134733Y120875D01*
X134500Y120667D01*
X134333Y120417D01*
X134200Y120000D01*
X134167Y119625D01*
X134233Y119250D01*
X134333Y119000D01*
X134533Y118750D01*
X134767Y118583D01*
X135000Y118500D01*
X135233D01*
X135467Y118583D01*
X135667Y118708D01*
X135833Y118875D01*
G01X137500Y118500D02*
X137733Y118542D01*
X138000Y118667D01*
X138167Y118875D01*
X138233Y119167D01*
X138167Y119458D01*
X137967Y119708D01*
X137667Y119833D01*
X137333D01*
X137133Y119917D01*
X136967Y120125D01*
X136900Y120417D01*
X137000Y120708D01*
X137233Y120917D01*
X137500Y121000D01*
X137767Y120917D01*
X138000Y120708D01*
X138100Y120417D01*
X138033Y120125D01*
X137867Y119917D01*
X137667Y119833D01*
X137333D01*
X137033Y119708D01*
X136833Y119458D01*
X136767Y119167D01*
X136833Y118875D01*
X137000Y118667D01*
X137267Y118542D01*
X137500Y118500D01*
G01X140233Y127792D02*
X140033Y127917D01*
X139800Y128000D01*
X139533D01*
X139233Y127875D01*
X139000Y127667D01*
X138833Y127417D01*
X138700Y127000D01*
X138667Y126625D01*
X138733Y126250D01*
X138833Y126000D01*
X139033Y125750D01*
X139267Y125583D01*
X139500Y125500D01*
X139733D01*
X139967Y125583D01*
X140167Y125708D01*
X140333Y125875D01*
G01X141433Y125792D02*
X141667Y125583D01*
X141933Y125500D01*
X142200Y125583D01*
X142433Y125833D01*
X142600Y126208D01*
X142667Y126583D01*
Y127042D01*
X142600Y127417D01*
X142433Y127750D01*
X142233Y127917D01*
X142000Y128000D01*
X141733Y127917D01*
X141533Y127750D01*
X141400Y127500D01*
X141333Y127167D01*
X141400Y126875D01*
X141567Y126583D01*
X141767Y126417D01*
X142000Y126375D01*
X142267Y126458D01*
X142467Y126667D01*
X142667Y127042D01*
G01X133333Y108500D02*
Y111000D01*
X134167D01*
X134433Y110875D01*
X134600Y110708D01*
X134667Y110375D01*
X134600Y110042D01*
X134400Y109833D01*
X134167Y109708D01*
X133333D01*
G01X134167D02*
X134667Y108500D01*
G01X136500D02*
Y111000D01*
X136100Y110500D01*
G01Y108500D02*
X136900D01*
G01X138933D02*
X139000Y109042D01*
X139100Y109500D01*
X139233Y109917D01*
X139400Y110375D01*
X139667Y111000D01*
X138333D01*
G01X0Y0D02*
X157480D01*
Y196850D01*
X0D01*
Y0D01*
G54D11*
G01X115250Y153500D02*
X116500Y150000D01*
X117750Y153500D01*
G01X119350Y151575D02*
X120950D01*
X120800Y151983D01*
X120550Y152217D01*
X120200Y152333D01*
X119850Y152275D01*
X119550Y152100D01*
X119350Y151692D01*
X119250Y151342D01*
Y150992D01*
X119350Y150642D01*
X119600Y150292D01*
X119900Y150058D01*
X120250Y150000D01*
X120600Y150117D01*
X120950Y150467D01*
G01X123000Y150000D02*
Y152333D01*
G01Y151867D02*
X123250Y152100D01*
X123500Y152275D01*
X123850Y152333D01*
X124100Y152275D01*
X124400Y152100D01*
G01X126550Y150408D02*
X126800Y150175D01*
X127150Y150000D01*
X127450D01*
X127750Y150117D01*
X127950Y150292D01*
X128050Y150525D01*
X128000Y150875D01*
X127800Y151050D01*
X126900Y151400D01*
X126700Y151808D01*
X126800Y152100D01*
X127000Y152275D01*
X127300Y152333D01*
X127600Y152275D01*
X127900Y152100D01*
G01X130900Y152333D02*
Y150000D01*
G01Y153267D02*
X130800Y153325D01*
Y153442D01*
X130900Y153500D01*
X131000Y153442D01*
Y153325D01*
X130900Y153267D01*
G01X134500Y150000D02*
X134200Y150058D01*
X133900Y150292D01*
X133700Y150700D01*
X133600Y151167D01*
X133700Y151633D01*
X133900Y152042D01*
X134200Y152275D01*
X134500Y152333D01*
X134800Y152275D01*
X135100Y152042D01*
X135300Y151633D01*
X135350Y151167D01*
X135300Y150700D01*
X135100Y150292D01*
X134800Y150058D01*
X134500Y150000D01*
G01X137250D02*
Y152333D01*
G01Y151750D02*
X137450Y152042D01*
X137750Y152275D01*
X138150Y152333D01*
X138500Y152275D01*
X138800Y152042D01*
X138950Y151633D01*
Y150000D01*
G01X145300D02*
Y153500D01*
X144700Y152800D01*
G01Y150000D02*
X145900D01*
G01X148900Y149883D02*
X148800Y149942D01*
Y150058D01*
X148900Y150117D01*
X149000Y150058D01*
Y149942D01*
X148900Y149883D01*
G01X152500Y153500D02*
X152100Y153383D01*
X151800Y153092D01*
X151600Y152742D01*
X151450Y152275D01*
X151400Y151750D01*
X151450Y151225D01*
X151600Y150758D01*
X151800Y150408D01*
X152100Y150117D01*
X152500Y150000D01*
X152900Y150117D01*
X153200Y150408D01*
X153400Y150758D01*
X153550Y151225D01*
X153600Y151750D01*
X153550Y152275D01*
X153400Y152742D01*
X153200Y153092D01*
X152900Y153383D01*
X152500Y153500D01*
G01X115250Y173000D02*
X116500Y176500D01*
X117750Y173000D01*
G01X117300Y174225D02*
X115700D01*
G01X119000Y173000D02*
Y176500D01*
X120000D01*
X120400Y176325D01*
X120700Y176092D01*
X120950Y175742D01*
X121150Y175333D01*
X121200Y174750D01*
X121150Y174167D01*
X120950Y173758D01*
X120700Y173408D01*
X120400Y173175D01*
X120000Y173000D01*
X119000D01*
G01X122600D02*
Y176500D01*
X123600D01*
X124000Y176325D01*
X124300Y176092D01*
X124550Y175742D01*
X124750Y175333D01*
X124800Y174750D01*
X124750Y174167D01*
X124550Y173758D01*
X124300Y173408D01*
X124000Y173175D01*
X123600Y173000D01*
X122600D01*
G01X126050D02*
X127300Y176500D01*
X128550Y173000D01*
G01X128100Y174225D02*
X126500D01*
G01X130900Y173000D02*
Y176500D01*
X130300Y175800D01*
G01Y173000D02*
X131500D01*
G01X133550Y174458D02*
X133900Y174867D01*
X134200Y175100D01*
X134600Y175217D01*
X134950Y175100D01*
X135200Y174867D01*
X135400Y174517D01*
X135450Y174108D01*
X135400Y173758D01*
X135200Y173408D01*
X134900Y173117D01*
X134550Y173000D01*
X134150Y173117D01*
X133800Y173467D01*
X133600Y173992D01*
X133550Y174575D01*
X133650Y175333D01*
X133800Y175742D01*
X134050Y176150D01*
X134400Y176442D01*
X134750Y176500D01*
X135100Y176383D01*
X135350Y176092D01*
G01X138500Y174867D02*
X138700Y175042D01*
X138850Y175333D01*
X138950Y175742D01*
X138850Y176092D01*
X138650Y176325D01*
X138300Y176500D01*
X136950D01*
Y173000D01*
X138600D01*
X138950Y173233D01*
X139150Y173583D01*
X139250Y173992D01*
X139150Y174400D01*
X138850Y174750D01*
X138500Y174867D01*
X136950D01*
G01X141700Y175333D02*
Y173000D01*
G01Y176267D02*
X141600Y176325D01*
Y176442D01*
X141700Y176500D01*
X141800Y176442D01*
Y176325D01*
X141700Y176267D01*
G01X145300Y176500D02*
Y173000D01*
G01X144600Y175333D02*
X146000D01*
G01X148150Y173408D02*
X148400Y173175D01*
X148750Y173000D01*
X149050D01*
X149350Y173117D01*
X149550Y173292D01*
X149650Y173525D01*
X149600Y173875D01*
X149400Y174050D01*
X148500Y174400D01*
X148300Y174808D01*
X148400Y175100D01*
X148600Y175275D01*
X148900Y175333D01*
X149200Y175275D01*
X149500Y175100D01*
G01X115400Y165500D02*
Y169000D01*
X116400D01*
X116800Y168825D01*
X117100Y168592D01*
X117350Y168242D01*
X117550Y167833D01*
X117600Y167250D01*
X117550Y166667D01*
X117350Y166258D01*
X117100Y165908D01*
X116800Y165675D01*
X116400Y165500D01*
X115400D01*
G01X119350Y167075D02*
X120950D01*
X120800Y167483D01*
X120550Y167717D01*
X120200Y167833D01*
X119850Y167775D01*
X119550Y167600D01*
X119350Y167192D01*
X119250Y166842D01*
Y166492D01*
X119350Y166142D01*
X119600Y165792D01*
X119900Y165558D01*
X120250Y165500D01*
X120600Y165617D01*
X120950Y165967D01*
G01X122950Y165908D02*
X123200Y165675D01*
X123550Y165500D01*
X123850D01*
X124150Y165617D01*
X124350Y165792D01*
X124450Y166025D01*
X124400Y166375D01*
X124200Y166550D01*
X123300Y166900D01*
X123100Y167308D01*
X123200Y167600D01*
X123400Y167775D01*
X123700Y167833D01*
X124000Y167775D01*
X124300Y167600D01*
G01X127300Y167833D02*
Y165500D01*
G01Y168767D02*
X127200Y168825D01*
Y168942D01*
X127300Y169000D01*
X127400Y168942D01*
Y168825D01*
X127300Y168767D01*
G01X130200Y164625D02*
X130550Y164392D01*
X130950Y164333D01*
X131300Y164392D01*
X131600Y164683D01*
X131800Y165092D01*
Y167833D01*
G01Y167367D02*
X131600Y167600D01*
X131300Y167775D01*
X130950Y167833D01*
X130550Y167717D01*
X130300Y167483D01*
X130100Y167075D01*
X130000Y166667D01*
X130050Y166317D01*
X130250Y165908D01*
X130550Y165617D01*
X130950Y165500D01*
X131250Y165558D01*
X131600Y165792D01*
X131800Y166025D01*
G01X133650Y165500D02*
Y167833D01*
G01Y167250D02*
X133850Y167542D01*
X134150Y167775D01*
X134550Y167833D01*
X134900Y167775D01*
X135200Y167542D01*
X135350Y167133D01*
Y165500D01*
G01X137350Y167075D02*
X138950D01*
X138800Y167483D01*
X138550Y167717D01*
X138200Y167833D01*
X137850Y167775D01*
X137550Y167600D01*
X137350Y167192D01*
X137250Y166842D01*
Y166492D01*
X137350Y166142D01*
X137600Y165792D01*
X137900Y165558D01*
X138250Y165500D01*
X138600Y165617D01*
X138950Y165967D01*
G01X142600Y169000D02*
Y165500D01*
G01Y166025D02*
X142400Y165733D01*
X142100Y165558D01*
X141750Y165500D01*
X141350Y165617D01*
X141050Y165908D01*
X140850Y166258D01*
X140800Y166667D01*
X140850Y167075D01*
X141050Y167425D01*
X141350Y167717D01*
X141750Y167833D01*
X142100Y167775D01*
X142350Y167658D01*
X142600Y167425D01*
G01X149300Y167367D02*
X149500Y167542D01*
X149650Y167833D01*
X149750Y168242D01*
X149650Y168592D01*
X149450Y168825D01*
X149100Y169000D01*
X147750D01*
Y165500D01*
X149400D01*
X149750Y165733D01*
X149950Y166083D01*
X150050Y166492D01*
X149950Y166900D01*
X149650Y167250D01*
X149300Y167367D01*
X147750D01*
G01X151450Y164450D02*
X151750Y164333D01*
X152150Y164450D01*
X152400Y164683D01*
X152600Y164975D01*
X152900Y165908D01*
X153550Y167833D01*
G01X151950D02*
X152900Y165908D01*
G01X115500Y158000D02*
Y161500D01*
X116700D01*
X117100Y161325D01*
X117400Y160917D01*
X117500Y160450D01*
X117400Y159983D01*
X117150Y159633D01*
X116700Y159458D01*
X115500D01*
G01X120100Y157883D02*
X120000Y157942D01*
Y158058D01*
X120100Y158117D01*
X120200Y158058D01*
Y157942D01*
X120100Y157883D01*
G01X122750Y161500D02*
X124650D01*
X122750Y158000D01*
X124650D01*
G01X127300Y157883D02*
X127200Y157942D01*
Y158058D01*
X127300Y158117D01*
X127400Y158058D01*
Y157942D01*
X127300Y157883D01*
G01X129900Y158000D02*
Y161500D01*
X131100D01*
X131500Y161325D01*
X131800Y160917D01*
X131900Y160450D01*
X131800Y159983D01*
X131550Y159633D01*
X131100Y159458D01*
X129900D01*
G54D12*
G01X33945Y146000D02*
Y150000D01*
G01X27055Y142500D02*
Y141996D01*
G01D02*
X33945D01*
Y142500D01*
G01X32500Y175500D02*
Y170500D01*
G01X30000Y175500D02*
Y170500D01*
X32500Y173000D01*
X30000Y175500D01*
G01X25488Y170000D02*
Y169457D01*
G01D02*
X36512D01*
Y170000D01*
G01X33945Y153500D02*
Y154004D01*
X27055D01*
Y153500D01*
G01X36512Y176000D02*
Y176543D01*
X25488D01*
Y176000D01*
G01X64602Y77000D02*
Y77602D01*
X52398D01*
Y77000D01*
G01Y66000D02*
Y65398D01*
G01D02*
X64602D01*
Y66000D01*
G01X50398Y118500D02*
Y117898D01*
X62602D01*
G01Y129500D02*
Y130102D01*
X50398D01*
Y129500D01*
G01X62602Y117898D02*
Y118500D01*
G01X93965Y141500D02*
Y141158D01*
X78295D01*
Y141500D01*
G01Y160500D02*
Y160842D01*
G01D02*
X93965D01*
Y160500D01*
G01X112465Y101500D02*
Y101158D01*
X96795D01*
Y101500D01*
G01Y120500D02*
Y120843D01*
G01D02*
X112465D01*
Y120500D01*
G01X100945Y180000D02*
Y184000D01*
G01Y187500D02*
Y188004D01*
X94055D01*
Y187500D01*
G01Y176500D02*
Y175996D01*
G01D02*
X100945D01*
Y176500D01*
G54D13*
G01X10000Y59000D02*
Y9000D01*
X20000D01*
Y59000D01*
X10000D01*
G01Y140500D02*
Y60500D01*
X20000D01*
Y140500D01*
X10000D01*
G01X20500Y168000D02*
Y188000D01*
X10500D01*
Y168000D01*
X20500D01*
G01X33000Y12189D02*
X43000D01*
G01X26189Y29000D02*
Y19000D01*
G01X35000Y54000D02*
X37500D01*
Y59000D01*
X35000D01*
G01X29500D02*
X27000D01*
Y54000D01*
X29500D01*
G01X43000Y35811D02*
X33000D01*
G01Y70500D02*
Y68500D01*
G01X31500Y70500D02*
Y68500D01*
G01X35000Y67000D02*
X37500D01*
Y72000D01*
X35000D01*
G01X29500D02*
X27000D01*
Y67000D01*
X29500D01*
G01X31500Y62000D02*
Y64000D01*
G01X33000Y62000D02*
Y64000D01*
G01X29500Y65500D02*
X27000D01*
Y60500D01*
X29500D01*
G01X35000D02*
X37500D01*
Y65500D01*
X35000D01*
G01Y73500D02*
X37500D01*
Y78500D01*
X35000D01*
G01X29500D02*
X27000D01*
Y73500D01*
X29500D01*
G01X29000Y112000D02*
X26500D01*
Y107000D01*
X29000D01*
G01X34500D02*
X37000D01*
Y112000D01*
X34500D01*
G01X29000Y118000D02*
X26500D01*
Y113000D01*
X29000D01*
G01X34500D02*
X37000D01*
Y118000D01*
X34500D01*
G01X29000Y124000D02*
X26500D01*
Y119000D01*
X29000D01*
G01X34500D02*
X37000D01*
Y124000D01*
X34500D01*
G01X39000Y138000D02*
Y140500D01*
X34000D01*
Y138000D01*
G01Y132500D02*
Y130000D01*
X39000D01*
Y132500D01*
G01X15500Y152500D02*
Y150000D01*
X20500D01*
Y152500D01*
G01X24500Y134500D02*
X22000D01*
Y129500D01*
X24500D01*
G01X30000D02*
X32500D01*
Y134500D01*
X30000D01*
G01X24500Y140500D02*
X22000D01*
Y135500D01*
X24500D01*
G01X30000D02*
X32500D01*
Y140500D01*
X30000D01*
G01X33000Y164500D02*
Y166500D01*
G01X34500Y164500D02*
Y166500D01*
G01X31000Y168000D02*
X28500D01*
Y163000D01*
X31000D01*
G01X19000Y154500D02*
X17000D01*
G01X19000Y156000D02*
X17000D01*
G01X20500Y158000D02*
Y160500D01*
X15500D01*
Y158000D01*
G01X24500Y160500D02*
X22000D01*
Y155500D01*
X24500D01*
G01X30000D02*
X32500D01*
Y160500D01*
X30000D01*
G01X31500Y178500D02*
G03X34000Y181000I0J2500D01*
G03X32000Y183000I-2000J0D01*
G02Y187500I0J2250D01*
G01X25500Y177500D02*
X23000D01*
Y188500D01*
X25500D01*
G01X49811Y19000D02*
Y29000D01*
G01X56689D02*
Y19000D01*
G01X42000Y65500D02*
X40000D01*
G01X42000Y67000D02*
X40000D01*
G01X38500Y63500D02*
Y61000D01*
X43500D01*
Y63500D01*
G01Y69000D02*
Y71500D01*
X38500D01*
Y69000D01*
G01X47000Y83000D02*
Y80500D01*
X52000D01*
Y83000D01*
G01X53000D02*
Y80500D01*
X58000D01*
Y83000D01*
G01X61500Y104000D02*
Y100500D01*
X54500D01*
Y104000D01*
G01X45000Y107500D02*
Y105000D01*
X50000D01*
Y107500D01*
G01X52000Y88500D02*
Y91000D01*
X47000D01*
Y88500D01*
G01X58000D02*
Y91000D01*
X53000D01*
Y88500D01*
G01X61500Y112000D02*
Y115500D01*
X54500D01*
Y112000D01*
G01X59500Y107000D02*
X56500D01*
G01X59500Y109000D02*
X56500D01*
G01X50000Y113000D02*
Y115500D01*
X45000D01*
Y113000D01*
G01X35500Y136000D02*
X37500D01*
G01X35500Y134500D02*
X37500D01*
G01X43500Y147500D02*
X41500D01*
G01X43500Y149000D02*
X41500D01*
G01X40000Y145500D02*
Y143000D01*
X45000D01*
Y145500D01*
G01Y151000D02*
Y153500D01*
X40000D01*
Y151000D01*
G01X57500Y145000D02*
Y141500D01*
X64500D01*
Y145000D01*
G01X36500Y163000D02*
X39000D01*
Y168000D01*
X36500D01*
G01X57500Y153000D02*
Y156500D01*
X64500D01*
Y153000D01*
G01X37500Y188500D02*
X40000D01*
Y177500D01*
X37500D01*
G01X50000Y176500D02*
X52500D01*
Y181500D01*
X50000D01*
G01X44500D02*
X42000D01*
Y176500D01*
X44500D01*
G01X46500Y184000D02*
Y187000D01*
G01X48000Y184000D02*
Y187000D01*
X46500Y185500D01*
X48000Y184000D01*
G01X44500Y188000D02*
X42000D01*
Y183000D01*
X44500D01*
G01X50000D02*
X52500D01*
Y188000D01*
X50000D01*
G01X63500Y12189D02*
X73500D01*
G01X80311Y19000D02*
Y29000D01*
G01X82000Y60500D02*
X79500D01*
Y55500D01*
X82000D01*
G01X73500Y58500D02*
Y56000D01*
X78500D01*
Y58500D01*
G01X82000Y54500D02*
X79500D01*
Y49500D01*
X82000D01*
G01X73500Y35811D02*
X63500D01*
G01X76000Y78500D02*
X74000D01*
G01X76000Y80000D02*
X74000D01*
G01X72500Y76500D02*
Y74000D01*
X77500D01*
Y76500D01*
G01X82000Y67000D02*
X79500D01*
Y62000D01*
X82000D01*
G01X75000D02*
X77000D01*
G01X75000Y60500D02*
X77000D01*
G01X78500Y64000D02*
Y66500D01*
X73500D01*
Y64000D01*
G01X85500Y77500D02*
Y74000D01*
X78500D01*
Y77500D01*
G01X83500Y80500D02*
X80500D01*
G01X65000Y83000D02*
Y80500D01*
X70000D01*
Y83000D01*
G01X59000D02*
Y80500D01*
X64000D01*
Y83000D01*
G01X82000Y73000D02*
X79500D01*
Y68000D01*
X82000D01*
G01X63000Y107500D02*
Y105000D01*
X68000D01*
Y107500D01*
G01X77500Y82000D02*
Y84500D01*
X72500D01*
Y82000D01*
G01X85500Y85500D02*
Y89000D01*
X78500D01*
Y85500D01*
G01X83500Y82500D02*
X80500D01*
G01X70000Y88500D02*
Y91000D01*
X65000D01*
Y88500D01*
G01X64000D02*
Y91000D01*
X59000D01*
Y88500D01*
G01X66500Y109500D02*
X64500D01*
G01X66500Y111000D02*
X64500D01*
G01X68000Y113000D02*
Y115500D01*
X63000D01*
Y113000D01*
G01X80500Y110500D02*
X78000D01*
Y105500D01*
X80500D01*
G01X67500Y151000D02*
X69500D01*
G01X67500Y149500D02*
X69500D01*
G01X66000Y147500D02*
Y145000D01*
X71000D01*
Y147500D01*
G01X59500Y150000D02*
X62500D01*
G01X59500Y148000D02*
X62500D01*
G01X80000Y135000D02*
X82500D01*
Y140000D01*
X80000D01*
G01X74500D02*
X72000D01*
Y135000D01*
X74500D01*
G01X71000Y153000D02*
Y155500D01*
X66000D01*
Y153000D01*
G01X63000Y162500D02*
X60500D01*
Y157500D01*
X63000D01*
G01X68500D02*
X71000D01*
Y162500D01*
X68500D01*
G01X83000Y185000D02*
Y187500D01*
X78000D01*
Y185000D01*
G01Y179500D02*
Y177000D01*
X83000D01*
Y179500D01*
G01X100000Y12189D02*
X110000D01*
G01X93189Y29000D02*
Y19000D01*
G01X84000Y57000D02*
Y59000D01*
G01X85500Y57000D02*
Y59000D01*
G01X87500Y55500D02*
X90000D01*
Y60500D01*
X87500D01*
G01Y49500D02*
X90000D01*
Y54500D01*
X87500D01*
G01X110000Y35811D02*
X100000D01*
G01X85500Y65500D02*
Y63500D01*
G01X84000Y65500D02*
Y63500D01*
G01X87500Y62000D02*
X90000D01*
Y67000D01*
X87500D01*
G01X96500Y90500D02*
Y70500D01*
X106500D01*
Y90500D01*
X96500D01*
G01X86500Y76500D02*
Y74000D01*
X91500D01*
Y76500D01*
G01X87500Y68000D02*
X90000D01*
Y73000D01*
X87500D01*
G01X102500Y100000D02*
X100000D01*
Y95000D01*
X102500D01*
G01X91500Y82000D02*
Y84500D01*
X86500D01*
Y82000D01*
G01X83500Y114000D02*
Y111500D01*
X88500D01*
Y114000D01*
G01Y119500D02*
Y122000D01*
X83500D01*
Y119500D01*
G01X86000Y105500D02*
X88500D01*
Y110500D01*
X86000D01*
G01X101000Y127000D02*
X98500D01*
Y122000D01*
X101000D01*
G01X89500Y136500D02*
Y138500D01*
G01X91000Y136500D02*
Y138500D01*
G01X87500Y140000D02*
X85000D01*
Y135000D01*
X87500D01*
G01X93000D02*
X95500D01*
Y140000D01*
X93000D01*
G01X89500Y130500D02*
Y132500D01*
G01X91000Y130500D02*
Y132500D01*
G01X87500Y134000D02*
X85000D01*
Y129000D01*
X87500D01*
G01X93000D02*
X95500D01*
Y134000D01*
X93000D01*
G01X101500Y149000D02*
Y146500D01*
X106500D01*
Y149000D01*
G01X88500Y165500D02*
Y163500D01*
G01X87000Y165500D02*
Y163500D01*
G01X90500Y162000D02*
X93000D01*
Y167000D01*
X90500D01*
G01X85000D02*
X82500D01*
Y162000D01*
X85000D01*
G01X105000Y171000D02*
Y173000D01*
G01X103000Y174500D02*
X100500D01*
Y169500D01*
X103000D01*
G01X106500Y154500D02*
Y157000D01*
X101500D01*
Y154500D01*
G01X87500Y181500D02*
X85500D01*
G01X87500Y183000D02*
X85500D01*
G01X84000Y179500D02*
Y177000D01*
X89000D01*
Y179500D01*
G01Y185000D02*
Y187500D01*
X84000D01*
Y185000D01*
G01X116811Y19000D02*
Y29000D01*
G01X125689D02*
Y19000D01*
G01X121000Y90500D02*
Y70500D01*
X131000D01*
Y90500D01*
X121000D01*
G01X108000D02*
Y70500D01*
X118000D01*
Y90500D01*
X108000D01*
G01Y95000D02*
X110500D01*
Y100000D01*
X108000D01*
G01X123000Y105000D02*
X120500D01*
Y100000D01*
X123000D01*
G01X126500Y119500D02*
Y117500D01*
G01X125000Y119500D02*
Y117500D01*
G01X123000Y121000D02*
X120500D01*
Y116000D01*
X123000D01*
G01X124000Y129000D02*
X120500D01*
Y122000D01*
X124000D01*
G01X127000Y127000D02*
Y124000D01*
G01X123000Y111000D02*
X120500D01*
Y106000D01*
X123000D01*
G01X106500Y122000D02*
X109000D01*
Y127000D01*
X106500D01*
G01X111000Y151000D02*
X109000D01*
G01X107500Y149000D02*
Y146500D01*
X112500D01*
Y149000D01*
G01X125500Y138000D02*
Y140500D01*
X120500D01*
Y138000D01*
G01Y132500D02*
Y130000D01*
X125500D01*
Y132500D01*
G01X132000Y138000D02*
Y140500D01*
X127000D01*
Y138000D01*
G01Y132500D02*
Y130000D01*
X132000D01*
Y132500D01*
G01X111000Y152500D02*
X109000D01*
G01X112500Y154500D02*
Y157000D01*
X107500D01*
Y154500D01*
G01X106500Y171000D02*
Y173000D01*
G01X108500Y169500D02*
X111000D01*
Y174500D01*
X108500D01*
G01X109500Y181500D02*
X107500D01*
G01X109500Y183000D02*
X107500D01*
G01X106000Y179500D02*
Y177000D01*
X111000D01*
Y179500D01*
G01Y185000D02*
Y187500D01*
X106000D01*
Y185000D01*
G01X132500Y12189D02*
X142500D01*
G01X149311Y19000D02*
Y29000D01*
G01X142500Y35811D02*
X132500D01*
G01X132000Y90500D02*
Y70500D01*
X142000D01*
Y90500D01*
X132000D01*
G01X128500Y100000D02*
X131000D01*
Y105000D01*
X128500D01*
G01Y116000D02*
X131000D01*
Y121000D01*
X128500D01*
G01X132000Y129000D02*
X135500D01*
Y122000D01*
X132000D01*
G01X129000Y127000D02*
Y124000D01*
G01X128500Y106000D02*
X131000D01*
Y111000D01*
X128500D01*
M02*
