G04 ================== begin FILE IDENTIFICATION RECORD ==================*
G04 Layout Name:  E:/WorkSpace/PrjPublic/ADS1115_DAC8552/PCB/ADS1115_DAC8552.brd*
G04 Film Name:    SOLDERMASK_TOP*
G04 File Format:  Gerber RS274X*
G04 File Origin:  Cadence Allegro 16.6-2015-S108*
G04 Origin Date:  Mon Apr 08 15:38:06 2024*
G04 *
G04 Layer:  BOARD GEOMETRY/OUTLINE*
G04 Layer:  BOARD GEOMETRY/SOLDERMASK_TOP*
G04 Layer:  PACKAGE GEOMETRY/SOLDERMASK_TOP*
G04 Layer:  PIN/SOLDERMASK_TOP*
G04 *
G04 Offset:    (0.000 0.000)*
G04 Mirror:    No*
G04 Mode:      Positive*
G04 Rotation:  0*
G04 FullContactRelief:  No*
G04 UndefLineWidth:     5.000*
G04 ================== end FILE IDENTIFICATION RECORD ====================*
%FSLAX55Y55*MOIN*%
%IR0*IPPOS*OFA0.00000B0.00000*MIA0B0*SFA1.00000B1.00000*%
%ADD20R,.059059X.019689*%
%ADD17R,.043311X.102358*%
%ADD22C,.08*%
%ADD14R,.037402X.0315*%
%ADD13R,.0315X.037402*%
%ADD16R,.051181X.051181*%
%ADD12C,.090551*%
%ADD10C,.075591*%
%ADD19R,.059059X.04724*%
%ADD23R,.04724X.059059*%
%ADD21R,.06378X.026382*%
%ADD15R,.046059X.026382*%
%ADD18R,.059059X.01378*%
%ADD11R,.075591X.075591*%
%ADD24C,.005*%
G75*
%LPD*%
G75*
G54D10*
X15000Y14000D03*
Y24000D03*
Y34000D03*
Y44000D03*
Y65500D03*
Y75500D03*
Y85500D03*
Y95500D03*
Y105500D03*
Y115500D03*
Y125500D03*
X15500Y183000D03*
X101500Y75500D03*
X126000D03*
X113000D03*
X137000D03*
G54D11*
X15000Y54000D03*
Y135500D03*
X15500Y173000D03*
X101500Y85500D03*
X126000D03*
X113000D03*
X137000D03*
G54D20*
X47839Y120161D03*
Y122720D03*
Y125280D03*
Y127839D03*
X65161D03*
Y125280D03*
Y122720D03*
Y120161D03*
G54D21*
X75500Y143500D03*
Y148500D03*
Y153500D03*
Y158500D03*
X94000Y103500D03*
Y108500D03*
Y113500D03*
Y118500D03*
X96760Y148500D03*
Y143500D03*
Y158500D03*
Y153500D03*
X115260Y103500D03*
Y118500D03*
Y113500D03*
Y108500D03*
G54D12*
X27961Y13961D03*
X38000Y24000D03*
X27961Y34039D03*
X48039Y13961D03*
X58461D03*
X48039Y34039D03*
X58461D03*
X78539Y13961D03*
X68500Y24000D03*
X78539Y34039D03*
X94961Y13961D03*
X105000Y24000D03*
X94961Y34039D03*
X115039Y13961D03*
X127461D03*
X115039Y34039D03*
X127461D03*
X147539Y13961D03*
X137500Y24000D03*
X147539Y34039D03*
G54D13*
X35496Y56500D03*
X29000D03*
X35496Y69500D03*
X29000D03*
X29004Y63000D03*
X35500D03*
X35496Y76000D03*
X29000D03*
X28504Y109500D03*
X35000D03*
X28504Y115500D03*
X35000D03*
X28504Y121500D03*
X35000D03*
X24004Y132000D03*
X30500D03*
X24004Y138000D03*
X30500D03*
X30504Y165500D03*
X24004Y158000D03*
X30500D03*
X37000Y165500D03*
X50496Y179000D03*
X44000D03*
X44004Y185500D03*
X50500D03*
X81504Y58000D03*
Y52000D03*
X81500Y64500D03*
X81504Y70500D03*
X80000Y108000D03*
X80496Y137500D03*
X74000D03*
X62504Y160000D03*
X69000D03*
X88000Y58000D03*
Y52000D03*
X87996Y64500D03*
X88000Y70500D03*
X102004Y97500D03*
X86496Y108000D03*
X100504Y124500D03*
X87004Y137500D03*
X93500D03*
X87004Y131500D03*
X93500D03*
X90996Y164500D03*
X84500D03*
X102504Y172000D03*
X108500Y97500D03*
X128996Y102500D03*
X122500D03*
X128996Y118500D03*
X122500D03*
X128996Y108500D03*
X122500D03*
X107000Y124500D03*
X109000Y172000D03*
G54D22*
X64500Y183000D03*
X128000Y54000D03*
X140000Y182500D03*
G54D23*
X123669Y125500D03*
X132331D03*
G54D14*
X36500Y138496D03*
Y132000D03*
X18000Y152004D03*
Y158500D03*
X41000Y63004D03*
Y69500D03*
X49500Y82504D03*
X55500D03*
X49500Y89000D03*
X55500D03*
X47500Y107004D03*
Y113500D03*
X42500Y145004D03*
Y151500D03*
X76000Y58000D03*
X75000Y76004D03*
Y82500D03*
X76000Y64496D03*
X67500Y82500D03*
X61500D03*
X67500Y88996D03*
X61500D03*
X65500Y107004D03*
Y113500D03*
X68500Y147000D03*
Y153496D03*
X80500Y185496D03*
Y179000D03*
X89000Y82496D03*
Y76000D03*
X86000Y113504D03*
Y120000D03*
X104000Y148504D03*
Y155000D03*
X86500Y179004D03*
Y185500D03*
X110000Y148504D03*
X123000Y138496D03*
Y132000D03*
X129500Y138496D03*
Y132000D03*
X110000Y155000D03*
X108500Y179004D03*
Y185500D03*
G54D24*
G01X0Y0D02*
X157480D01*
Y196850D01*
X0D01*
Y0D01*
G54D15*
X35618Y151740D03*
Y144260D03*
X25382D03*
Y148000D03*
Y151740D03*
X102618Y185740D03*
Y178260D03*
X92382D03*
Y182000D03*
Y185740D03*
G54D16*
X37299Y173000D03*
X24701D03*
G54D17*
X25689Y183000D03*
X37500D03*
G54D18*
X49839Y67563D03*
Y69532D03*
Y71500D03*
Y73468D03*
Y75437D03*
X67161D03*
Y73468D03*
Y71500D03*
Y69532D03*
Y67563D03*
G54D19*
X58000Y103669D03*
Y112331D03*
X61000Y153331D03*
Y144669D03*
X82000Y77169D03*
Y85831D03*
M02*
